<svg xmlns:dc="http://purl.org/dc/elements/1.1/" xmlns:cc="http://creativecommons.org/ns#" xmlns:rdf="http://www.w3.org/1999/02/22-rdf-syntax-ns#" xmlns:svg="http://www.w3.org/2000/svg" xmlns="http://www.w3.org/2000/svg" xmlns:sodipodi="http://sodipodi.sourceforge.net/DTD/sodipodi-0.dtd" xmlns:inkscape="http://www.inkscape.org/namespaces/inkscape" version="1.1" x="0px" y="0px" viewBox="0 0 100 125"><g transform="translate(0,-952.36218)"><path style="font-size:medium;font-style:normal;font-variant:normal;font-weight:normal;font-stretch:normal;text-indent:0;text-align:start;text-decoration:none;line-height:normal;letter-spacing:normal;word-spacing:normal;text-transform:none;direction:ltr;block-progression:tb;writing-mode:lr-tb;text-anchor:start;baseline-shift:baseline;opacity:1;color:#000000;fill:#000000;fill-opacity:1;stroke:none;stroke-width:2;marker:none;visibility:visible;display:inline;overflow:visible;enable-background:accumulate;font-family:Sans;-inkscape-font-specification:Sans" d="M 49.875 6.96875 A 1.0001 1.0001 0 0 0 49 8 L 49 20 A 1.0001 1.0001 0 1 0 51 20 L 51 8 A 1.0001 1.0001 0 0 0 49.875 6.96875 z M 15.9375 11.96875 A 1.0001 1.0001 0 0 0 15.25 13.65625 L 23.25 22.65625 A 1.006934 1.006934 0 1 0 24.75 21.3125 L 16.75 12.3125 A 1.0001 1.0001 0 0 0 15.9375 11.96875 z M 83.90625 11.96875 A 1.0001 1.0001 0 0 0 83.25 12.3125 L 75.25 21.3125 A 1.006934 1.006934 0 1 0 76.75 22.65625 L 84.75 13.65625 A 1.0001 1.0001 0 0 0 83.90625 11.96875 z M 25.84375 31 A 1.0001 1.0001 0 0 0 25.125 31.46875 L 11.125 55.46875 A 1.0001 1.0001 0 0 0 11.3125 56.71875 L 49.3125 92.71875 A 1.0001 1.0001 0 0 0 50.5 92.84375 A 1.0001 1.0001 0 0 0 50.6875 92.71875 L 88.6875 56.71875 A 1.0001 1.0001 0 0 0 88.875 55.46875 L 74.875 31.46875 A 1.0001 1.0001 0 0 0 74 31 L 50 31 L 26.03125 31 A 1.0001 1.0001 0 0 0 25.84375 31 z M 27.375 33 L 48.125 33 L 34.28125 53.71875 L 27.375 33 z M 51.875 33 L 72.625 33 L 65.71875 53.71875 L 51.875 33 z M 50 33.78125 L 64.15625 55 L 35.84375 55 L 50 33.78125 z M 25.75 34.40625 L 32.625 55 L 13.75 55 L 25.75 34.40625 z M 74.25 34.40625 L 86.25 55 L 67.375 55 L 74.25 34.40625 z M 14.53125 57 L 33.34375 57 L 47.0625 87.8125 L 14.53125 57 z M 35.53125 57 L 64.46875 57 L 50 89.5625 L 35.53125 57 z M 66.65625 57 L 85.46875 57 L 52.9375 87.8125 L 66.65625 57 z " transform="translate(0,952.36218)"/></g><text x="0" y="115" fill="#000000" font-size="5px" font-weight="bold" font-family="'Helvetica Neue', Helvetica, Arial-Unicode, Arial, Sans-serif">Created by Rockicon</text><text x="0" y="120" fill="#000000" font-size="5px" font-weight="bold" font-family="'Helvetica Neue', Helvetica, Arial-Unicode, Arial, Sans-serif">from the Noun Project</text></svg>