<svg id="Layer_1" data-name="Layer 1" xmlns="http://www.w3.org/2000/svg" width="339.33" height="415.15" viewBox="0 0 339.33 415.15"><path d="M193.49,148.45a7,7,0,0,0,5.68-2.93h.2a17.68,17.68,0,0,0,6.89-1.3,3.12,3.12,0,1,0-2.45-5.73,10.85,10.85,0,0,1-3.7.75l0-.1a9.15,9.15,0,0,0,2.07-1.92,3.12,3.12,0,0,0-5-3.8,3.12,3.12,0,0,1-2.21,1.18,7.33,7.33,0,0,0-1.5-.17,7,7,0,0,0,0,14Z"/><path d="M137.49,134.44a6.86,6.86,0,0,0-1.51.18,3.19,3.19,0,0,1-2.21-1.19,3.12,3.12,0,1,0-4.94,3.8,8.94,8.94,0,0,0,2.07,1.92.19.19,0,0,1,0,.07,9.94,9.94,0,0,1-3.66-.7,3.12,3.12,0,0,0-2.54,5.7,17.11,17.11,0,0,0,6.82,1.26l.27,0a7,7,0,1,0,5.72-11Z"/><path d="M191.24,114.22c.08,0,8.22-1.35,13.86,2.62a3,3,0,0,0,1.79.57,3.12,3.12,0,0,0,1.8-5.67c-7.79-5.48-18.09-3.74-18.53-3.66a3.12,3.12,0,0,0,1.08,6.14Z"/><path d="M124.08,117.41a3.17,3.17,0,0,0,1.8-.57c5.59-3.94,13.66-2.65,13.85-2.62a3.12,3.12,0,0,0,1.08-6.15c-.43-.07-10.74-1.82-18.53,3.67a3.12,3.12,0,0,0,1.8,5.67Z"/><path d="M175.69,179.24a3.11,3.11,0,1,0-1.7-6,30.74,30.74,0,0,1-17,0,3.11,3.11,0,1,0-1.7,6,37.35,37.35,0,0,0,10.2,1.45,36.93,36.93,0,0,0,10.21-1.45Z"/><path d="M162.05,156.27a1.13,1.13,0,0,1,1-.66h3.6a1.13,1.13,0,0,1,1,.66c4.55,10.63,11.6,14.22,27.95,14.22,13.92,0,25.07-10.16,27.13-24.69a8.92,8.92,0,0,0,.08-1.16V133.76a9.85,9.85,0,0,0-2.76-6.85l-1.53-1.6a9.1,9.1,0,0,0-6.56-2.79H117.73a9.14,9.14,0,0,0-6.56,2.8l-1.53,1.59a9.9,9.9,0,0,0-2.75,6.86v10.88a8.89,8.89,0,0,0,.08,1.15c2.06,14.54,13.21,24.7,27.13,24.7,16.35,0,23.4-3.6,28-14.23Zm-28,8c-10.73,0-19.34-8-21-19.62V133.76a3.61,3.61,0,0,1,1-2.53l1.53-1.6a2.87,2.87,0,0,1,2.06-.87H212a2.91,2.91,0,0,1,2.06.87l1.53,1.6a3.68,3.68,0,0,1,1,2.53v11.16c-1.61,11.39-10.23,19.34-21,19.34-15.28,0-19.06-3.08-22.21-10.44a7.33,7.33,0,0,0-6.76-4.44h-3.59a7.33,7.33,0,0,0-6.76,4.44c-3.16,7.36-6.94,10.44-22.23,10.44Z"/><path d="M298.07,307h2.85a10.74,10.74,0,1,0,0-21.47H262A10.74,10.74,0,1,0,262,307h2.86v19.65c-11.39-21.21-26.08-38.46-43.88-51.32L205.52,265,202.11,263a8.21,8.21,0,0,0-3.09-4.81L188,249.85V236.2a86.17,86.17,0,0,0,23.14-13.36v0c-.51,6.88.82,14.57,3.95,22.84,7.66,20.3,27.17,24.63,42.42,24.63a88.17,88.17,0,0,0,20.36-2.4,3.12,3.12,0,0,0,.44-5.87c-.21-.09-21-9.49-22-34.43-.95-22.87-16-28.76-23.49-30.28,1-2.08,2-4.33,2.88-6.8,9.19-.13,17.83-6.81,21.59-17C262,160.5,257,146.36,246,142l-.58-.2c.75-8.45,1.15-17.23,1.15-26.07,0-43.16-21.23-93.56-81.08-93.56S84.4,72.56,84.4,115.72c0,8.84.4,17.62,1.15,26.08-.19.07-.39.12-.57.19-11,4.37-16,18.51-11.24,31.52,3.77,10.23,12.41,16.91,21.6,17a66.49,66.49,0,0,0,5.1,11c6.68,11.14,22.49,27.1,42.56,34.66v13.64l-10.86,8.25a8.38,8.38,0,0,0-3.26,4.93l-3.62,2.06-15.4,10.3C90.28,289.53,66.73,315,52,359.86H38.41v-17a9.43,9.43,0,0,0-3.24-18.29H17.45a9.43,9.43,0,0,0-3.24,18.29v17H3.12A3.12,3.12,0,0,0,0,363v49a3.12,3.12,0,0,0,6.24,0V366.09h8v22a12.11,12.11,0,0,0,24.21,0v-22H50.1a283,283,0,0,0-9.34,45.55,3.13,3.13,0,0,0,3.09,3.51H295a3.12,3.12,0,0,0,3.12-3.12V396.49h.85a9,9,0,0,0,6.38-2.84,12.2,12.2,0,0,0,3.32-8.67,11.55,11.55,0,0,0-3.36-8.13A13.3,13.3,0,0,0,308.4,368a13.08,13.08,0,0,0-3.92-9.25c.25-.26.53-.48.76-.77a13.3,13.3,0,0,0,2.88-8.58c-.1-6.43-4.52-11.61-10.05-12.11ZM17.44,330.84H35.18a3.2,3.2,0,0,1,0,6.39,3.12,3.12,0,0,0-3.06,3.12v3.38H20.44v-3.38a3.12,3.12,0,0,0-3.06-3.12,3.2,3.2,0,0,1,.06-6.39Zm3,19.13H32.17v9.89H20.44ZM32.17,388.1a5.87,5.87,0,0,1-11.73,0v-22H32.17ZM262,300.74a4.5,4.5,0,0,1,0-9h38.89a4.5,4.5,0,1,1,0,9h-6a3.12,3.12,0,0,0-3.12,3.12v10.05H271.14V303.86a3.12,3.12,0,0,0-3.12-3.12Zm9.11,36.81V320.14h20.68v17.12Zm-8.56-1.9.92,2.24a10.39,10.39,0,0,0-5.69,3.6h-.87c-7.21.09-13.12,7.18-13.18,15.8a16.78,16.78,0,0,0,4.64,12,11.54,11.54,0,0,0,7.46,3.49,11.51,11.51,0,0,0,7.61,7.65,11.82,11.82,0,0,0,1.43,12.39v16.06h-42l12-52.66a3.15,3.15,0,0,0-.31-2.19l-6.46-11.83,13.3-9a3.13,3.13,0,0,0,1.21-3.53L230.27,291c12.91,12.1,23.76,27.06,32.31,44.61ZM258,360.05a13,13,0,0,0-2.72,6.37,6.29,6.29,0,0,1-2.48-1.52,10.7,10.7,0,0,1-2.79-7.57c0-4.2,2.18-7.86,5-9.11a13.59,13.59,0,0,0-.14,1.93,13,13,0,0,0,3.85,9.18c-.23.25-.49.45-.71.72Zm-40.53-79.61c1.3.95,2.55,2,3.82,3L236,329.34l-13.71,9.32a3.12,3.12,0,0,0-1,4.08L228.52,356l-12.07,52.89H202.1l.38-1.83c8.05-52.87,2.71-116.37.7-136.19Zm-82.75,125.7c-6.78-44.53-3.92-96.84-1.7-123.38,1.79,5.91,3.45,11.35,3.45,11.35a3.11,3.11,0,0,0,2,2.05,2.89,2.89,0,0,0,1,.16,3.15,3.15,0,0,0,1.88-.63l21.05-15.9.08,129.11H135.3Zm33.9-126.45,21,16a3.08,3.08,0,0,0,1.88.63,2.88,2.88,0,0,0,1-.15,3.09,3.09,0,0,0,2-2.06s1.69-5.52,3.49-11.49c2.23,26.48,5.12,78.85-1.65,123.35l-.62,2.94h-27ZM195.87,268c-1.2,4.09-4.26,14.2-6,20l-19.74-15,15.17-17.36,10.05,7.61c.17.14,1.53,1.34.54,4.75ZM250,227.88a45.62,45.62,0,0,0,18.51,35.47c-13.12,1.81-39.26,2.35-47.64-19.85-2.8-7.42-4-14.21-3.55-20.46l-.08-5.52c1-.89,1.85-1.79,2.73-2.7,1,8.73,4.91,23.41,19.4,32.67a3,3,0,0,0,1.67.5,3.12,3.12,0,0,0,1.69-5.75c-17.62-11.27-16.88-32.81-16.82-34.13,1.36-1.73,2.55-3.4,3.59-5,4.16.37,19.61,3.22,20.5,24.76Zm1.36-56.52c-2.49,6.77-7.83,11.55-13.58,12.67a205.91,205.91,0,0,0,6.95-35.66c7.08,3.65,10.08,13.6,6.63,23Zm-11-55.63c0,4.68-.13,9.35-.36,14-5.61-5-19.11-18.75-24.25-39.73A3.14,3.14,0,0,0,211,88.1c-.72.46-17.93,10.84-40.12-13.28a3.09,3.09,0,0,0-3.77-.64,3.14,3.14,0,0,0-1.55,3.5l2.7,10.8c-20.06-2-31-18-31.34-18.51a42.53,42.53,0,0,1-4.72-14.48A50.57,50.57,0,0,1,171.63,48,3.12,3.12,0,0,0,173,42,56.09,56.09,0,0,0,132.31,48a22.67,22.67,0,0,1,.76-3.29c2-6.22,6.94-11.12,14.62-14.56a86,86,0,0,1,17.8-1.79c72.75,0,74.85,78.39,74.85,87.33ZM130.25,36.41a26.44,26.44,0,0,0-3.13,6.46c-3.94,12.23,1.6,24.79,3.73,28.93L122.7,91.25l-4.32-3.06A3.12,3.12,0,0,0,113.55,90c-4.7,19.16-16.37,32.29-22.64,38.23q-.27-6.22-.28-12.5c0-7.18,1.39-59.13,39.62-79.31Zm-50.66,135c-3.44-9.38-.45-19.33,6.63-23a205.85,205.85,0,0,0,7,35.64c-5.73-1.12-11.09-5.9-13.58-12.66Zm26.19,27c-7.1-11.85-12.49-35.85-14.39-62.19a86,86,0,0,0,27-40.29l3.87,2.74A3.13,3.13,0,0,0,127,97.26l8.18-19.54c5.63,6.32,18.1,17.2,37.19,17.2a3.11,3.11,0,0,0,2.46-1.2,3.08,3.08,0,0,0,.56-2.67l-1.12-4.49c16.44,13.34,30.11,11,36.44,8.59,7.88,26.58,27.28,41.08,28.14,41.7a1.77,1.77,0,0,0,.32.21l.38.22c-2,25.9-7.31,49.39-14.31,61.07-8.34,13.88-31.92,35.9-59.71,35.9s-51.38-22-59.71-35.91Zm59.71,42.15a61.7,61.7,0,0,0,16.25-2.24v12l-16.18,18.51-16.32-18.51v-12a61.65,61.65,0,0,0,16.25,2.24ZM135.72,263.2l10-7.56L161,273l-19.88,15c-1.76-5.8-4.83-15.92-6-20-1-3.4.38-4.61.62-4.8Zm-22.3,17.31,14.44-9.66c-2,19.77-7.36,83.35.71,136.41l.35,1.65H114.29L102.22,356l7.25-13.28a3.13,3.13,0,0,0-1-4.08l-13.71-9.32,14.64-45.8c1.34-1.06,2.68-2.08,4-3Zm-13.06,10.88L88.13,329.66a3.1,3.1,0,0,0,1.21,3.53l13.3,9-6.46,11.84a3.2,3.2,0,0,0-.31,2.19l12,52.65h-22V363a3.12,3.12,0,0,0-3.12-3.12H58.61c11-32.51,26.67-54.16,41.75-68.47ZM56.61,366.1h23v42.81H47.4a270.7,270.7,0,0,1,9.21-42.81Zm235.22,42.81H271.14v-12.5a8.46,8.46,0,0,0,.88.08h19.81v12.41Zm10.05-59.43A7,7,0,0,1,300.4,354a4,4,0,0,1-3.06,1.64,3.11,3.11,0,0,0-3.07,3.16s0,.07,0,.1v0a3.11,3.11,0,0,0,3.12,3.07h.09c2.48,0,4.61,2.76,4.66,6.06s-2,6.15-4.53,6.19a3.12,3.12,0,0,0,0,6.23h.05a9.76,9.76,0,0,0,1.07-.13h.1c1.86,0,3.46,2.14,3.5,4.7a6,6,0,0,1-1.55,4.23,2.92,2.92,0,0,1-2,1H272a2.76,2.76,0,0,1-1.86-.84,5.55,5.55,0,0,1-1.52-3.85c0-2.58,1.52-4.77,3.4-4.8h0l14.53-.21a3.12,3.12,0,0,0,3.08-3.16,3.05,3.05,0,0,0-3.17-3.08l-20.37.29c-2.65.07-4.66-2.73-4.71-6.05a7.05,7.05,0,0,1,1.47-4.56,4,4,0,0,1,3.06-1.63L284,362.1a3.12,3.12,0,0,0,0-6.24H284l-18.15.26h-.05c-2.48,0-4.61-2.76-4.66-6.05a7.17,7.17,0,0,1,1.48-4.56,4,4,0,0,1,3.05-1.63l31.54-.45c2.37-.12,4.67,2.73,4.71,6.05Z"/><path d="M306.5,238.68a19,19,0,1,0,19,19.05A19.06,19.06,0,0,0,306.5,238.68Zm0,31.86a12.81,12.81,0,1,1,12.81-12.81A12.83,12.83,0,0,1,306.5,270.54Z"/><path d="M306.5,230.42a15.08,15.08,0,1,0-15.08-15.08A15.1,15.1,0,0,0,306.5,230.42Zm0-23.92a8.84,8.84,0,1,1-8.84,8.84A8.85,8.85,0,0,1,306.5,206.5Z"/></svg>