<svg id="Layer_1" data-name="Layer 1" xmlns="http://www.w3.org/2000/svg" width="190" height="190" viewBox="0 0 190 190"><defs><style>.cls-1,.cls-2{fill:none;}.cls-1{stroke:#000;stroke-miterlimit:10;stroke-width:8px;}</style></defs><path class="cls-1" d="M10.56,86A86.59,86.59,0,0,0,9.7,98.13a85.54,85.54,0,0,0,171.07,0,86.56,86.56,0,0,0-.55-9.71"/><path class="cls-2" d="M117.31,72.63c.86-6.56,1.66-13.11,2.61-19.64.39-2.66-.31-4.24-3-5.35C102,41.4,87,41.44,72.2,48a5.5,5.5,0,0,0-2.54,4.31,103.93,103.93,0,0,0,2,16.24c.81,3.74-.38,4.71-3.73,5.71-15.19,4.5-21.08,14.87-17.81,30.42,3.51,16.63,12.51,30.47,22.4,43.81a5.87,5.87,0,0,0,4.17,1.82q18.15.23,36.3,0a6,6,0,0,0,4.12-2c9.25-12,17.26-24.78,21.26-39.53,5-18.38-.4-30.86-19.56-35.27A8,8,0,0,1,117.31,72.63Z"/><path d="M5,71.33a18,18,0,0,1,.87-3.41c.63-1.85,1.38-2.93,2.43-3.5a3.5,3.5,0,0,1,2.9-.17A3.71,3.71,0,0,1,13.73,68l.06,0a3.54,3.54,0,0,1,3.38-1,22.44,22.44,0,0,0,4,.24L20.58,69a18,18,0,0,1-3.5-.21c-2-.24-2.93.24-3.53,1.78L13,72.16l5.79,2-.59,1.72Zm6.69.38.61-1.77c.64-1.85,0-3.37-1.5-3.9-1.73-.59-2.91.4-3.56,2.22A7.66,7.66,0,0,0,6.79,70Z"/><path d="M18,63.06a3.26,3.26,0,0,0,4.71-1.56,6.7,6.7,0,0,0,.78-2.75l1.32.3a8.11,8.11,0,0,1-.94,3.31c-1.39,2.81-4.06,3.57-6.81,2.2s-4.11-4.05-2.79-6.71c1.48-3,4.48-2.46,6.16-1.63a7.56,7.56,0,0,1,.74.44Zm1.22-5.45c-1-.54-2.9-.9-3.83,1-.83,1.68.35,3.18,1.43,3.88Z"/><path d="M24.52,56.64A4.77,4.77,0,0,0,26.45,55c.73-1.13.5-2-.21-2.47s-1.43-.3-2.59.58c-1.53,1.19-2.85,1.38-3.87.72-1.38-.88-1.8-2.72-.63-4.56A5.13,5.13,0,0,1,21,47.48l.88,1.11A4,4,0,0,0,20.3,50a1.48,1.48,0,0,0,.25,2.18c.71.45,1.36.14,2.49-.7,1.52-1.13,2.75-1.41,4-.6,1.51,1,1.82,2.81.52,4.84a5.83,5.83,0,0,1-2.12,2Z"/><path d="M25,46.8c-1-.82-1.85-1.45-2.63-2l1.05-1.29,1.41,1,0,0a4,4,0,0,1,.76-4.05c1.55-1.9,4.33-2,6.72-.07,2.83,2.31,2.82,5.18,1.31,7a3.57,3.57,0,0,1-3.22,1.42l0,0,4.28,3.49-1.16,1.42Zm3.25.3a3.82,3.82,0,0,0,.64.41,2.85,2.85,0,0,0,3.43-.78c1.23-1.51.71-3.4-1.09-4.87-1.58-1.29-3.61-1.56-4.84,0a3,3,0,0,0,0,3.61,3.12,3.12,0,0,0,.51.58Z"/><path d="M40.58,32.66c2.57,2.75,1.78,5.72,0,7.4-2,1.88-4.93,1.86-7.13-.49s-2.06-5.46,0-7.38S38.46,30.39,40.58,32.66Zm-5.82,5.59c1.52,1.62,3.61,2,4.92.74s1.13-3.32-.44-5c-1.17-1.26-3.29-2.27-4.89-.77S33.44,36.84,34.76,38.25Z"/><path d="M40.92,29.54c-.61-.86-1.12-1.54-1.66-2.19l1.33-1,1.06,1.3,0,0a3.74,3.74,0,0,1,1.62-3.51c1.15-.81,3.41-1.4,5.44,1.44l3.52,4.94-1.51,1.07-3.4-4.77c-1-1.33-2.24-2.09-3.65-1.08a2.62,2.62,0,0,0-.92,3,2.59,2.59,0,0,0,.39.78l3.55,5-1.5,1.07Z"/><path d="M53.06,27.92a4.92,4.92,0,0,0,2.49-.54c1.18-.65,1.41-1.54,1-2.28s-1.12-.94-2.56-.72c-1.92.31-3.16-.15-3.75-1.22-.79-1.43-.28-3.25,1.63-4.31a5.15,5.15,0,0,1,2.49-.65l.25,1.4a3.88,3.88,0,0,0-2.1.49,1.47,1.47,0,0,0-.82,2c.4.74,1.12.78,2.52.58,1.87-.27,3.09.07,3.82,1.39.86,1.56.26,3.34-1.85,4.51a5.93,5.93,0,0,1-2.84.77Z"/><path d="M57.52,13.14a1.14,1.14,0,0,1-2.08.95A1.13,1.13,0,0,1,56,12.56,1.1,1.1,0,0,1,57.52,13.14Zm3.54,12.7-4.22-9.25,1.68-.76,4.22,9.24Z"/><path d="M64.81,24.06c-.19-.67-.48-1.66-.78-2.51L60,9.93l1.73-.59,2.08,6h0a3.79,3.79,0,0,1,2.67-2.89c2.38-.83,4.75.58,5.73,3.5,1.19,3.44-.39,5.89-2.53,6.63a3.63,3.63,0,0,1-3.84-.7l-.06,0,.47,1.62Zm.48-4.48a2.89,2.89,0,0,0,.3.61,2.83,2.83,0,0,0,3.32,1.14c1.83-.63,2.41-2.49,1.65-4.69-.66-1.93-2.22-3.24-4.09-2.59a2.94,2.94,0,0,0-1.92,3.06,4.19,4.19,0,0,0,.14.75Z"/><path d="M72.17,6.14,74,5.71l3.45,14.5-1.8.43Z"/><path d="M80.17,14.78a3.26,3.26,0,0,0,4,3,6.72,6.72,0,0,0,2.71-.93l.5,1.27a8.35,8.35,0,0,1-3.26,1.11c-3.1.45-5.24-1.32-5.68-4.35s1-5.69,3.93-6.11c3.28-.48,4.57,2.28,4.84,4.13a5.11,5.11,0,0,1,.06.86Zm5.17-2.09c-.15-1.17-.91-2.9-3-2.6-1.85.27-2.41,2.09-2.37,3.38Z"/><path d="M93.4,16a6.57,6.57,0,0,0,3.25,1c1.87,0,3-.92,3-2.34s-.7-2.1-2.59-2.89c-2.29-.87-3.69-2.11-3.64-4.1.06-2.21,1.93-3.8,4.68-3.73a6.4,6.4,0,0,1,3.11.78l-.55,1.47A5.71,5.71,0,0,0,98,5.42c-1.93,0-2.69,1.09-2.72,2.06,0,1.32.81,2,2.75,2.8,2.37,1,3.56,2.17,3.5,4.25s-1.72,4-5.06,3.94a7.27,7.27,0,0,1-3.58-1Z"/><path d="M111.84,17.06c-.16,1-.28,2-.33,2.75l-1.62-.25.14-1.65h0a3.83,3.83,0,0,1-3.61,1.37c-1.57-.24-3.33-1.4-2.8-4.93l.89-5.88,1.83.28-.84,5.57c-.29,1.91.1,3.28,1.76,3.53a2.67,2.67,0,0,0,2.66-1.29,2.87,2.87,0,0,0,.3-.91l.94-6.17,1.83.28Z"/><path d="M115.4,13.67c.37-1.25.62-2.26.86-3.2l1.59.46-.41,1.7h0a4,4,0,0,1,4-.87c2.35.69,3.54,3.2,2.67,6.17-1,3.5-3.67,4.61-6,3.93a3.56,3.56,0,0,1-2.55-2.41h0l-1.56,5.29-1.75-.51Zm1,3.12a3.47,3.47,0,0,0-.13.75,2.84,2.84,0,0,0,2,2.85c1.87.55,3.41-.66,4.06-2.89.58-2,0-3.93-1.83-4.48a3.18,3.18,0,0,0-3.66,2.1Z"/><path d="M126.78,17.24c.54-1.19.93-2.16,1.29-3.06l1.51.68-.64,1.63h0a4,4,0,0,1,4.1-.31c2.24,1,3.07,3.67,1.8,6.48-1.51,3.33-4.28,4.06-6.46,3.08A3.55,3.55,0,0,1,126.23,23h0l-2.28,5-1.66-.75Zm.55,3.22a4.67,4.67,0,0,0-.24.72,2.86,2.86,0,0,0,1.64,3.12c1.78.8,3.47-.19,4.43-2.31.84-1.86.58-3.89-1.2-4.69a3,3,0,0,0-3.49.93,3.08,3.08,0,0,0-.42.64Z"/><path d="M141.54,15.45l1.6.92L135.71,29.3l-1.6-.92Z"/><path d="M144.23,22.58l-1.6,6.2c-.19.68-.44,1.48-.65,2.08l0,0c.5-.39,1.12-.91,1.75-1.37l5.05-3.74,1.61,1.11L144,31.25c-3.08,2.11-4.84,3.06-6.49,3.23a5,5,0,0,1-2.55-.31l.51-1.54a4.69,4.69,0,0,0,1.84.18,5.53,5.53,0,0,0,2.45-.8,1.24,1.24,0,0,0,.37-.28,1.68,1.68,0,0,0,.18-.47l2.25-9.83Z"/><path d="M155.75,45.08a8.85,8.85,0,0,1-3.13-2.16c-2.82-2.82-3.17-6.73.11-10a7,7,0,0,1,10.48,0,7.59,7.59,0,0,1,1.94,2.82l-1.37.75a6.61,6.61,0,0,0-1.6-2.44c-2.35-2.34-5.41-2.4-8,.24-2.45,2.45-2.61,5.44-.17,7.87a7.36,7.36,0,0,0,2.53,1.69Z"/><path d="M168.07,37.38l1.12,1.47-5.05,3.85,0,0A3.45,3.45,0,0,1,166,43a3.85,3.85,0,0,1,1.57,1.19c.82,1.09,1.48,3.33-1.31,5.46l-4.81,3.66-1.12-1.47L165,48.29c1.3-1,2-2.31,1-3.7a2.66,2.66,0,0,0-3-.85,2.45,2.45,0,0,0-.78.43l-4.88,3.72-1.12-1.47Z"/><path d="M165.4,60l1-.77,0-.06a3.77,3.77,0,0,1-2.86-1.92,2.9,2.9,0,0,1,1-4.16c2.13-1.23,4.38,0,6.34,3.39l.18-.11a2.08,2.08,0,0,0,.87-3.17,5,5,0,0,0-2-1.91l.84-1a6.24,6.24,0,0,1,2.46,2.44c1.56,2.68.11,4.4-1.66,5.43L168.27,60a14.43,14.43,0,0,0-2,1.37Zm4.35-2.84c-1-1.77-2.43-3.57-4.14-2.57a1.63,1.63,0,0,0-.65,2.39,2.52,2.52,0,0,0,2.7,1.27,1.86,1.86,0,0,0,.57-.21Z"/><path d="M167.17,63.44l9.2-4.32.79,1.68L168,65.12Zm12.66-3.67a1.09,1.09,0,0,1-1.52-.58,1.1,1.1,0,0,1,.55-1.49,1.13,1.13,0,0,1,1.54.55A1.11,1.11,0,0,1,179.83,59.77Z"/><path d="M176,64.76c1-.35,1.8-.66,2.56-1l.56,1.54-1.55.66v0a3.73,3.73,0,0,1,2.93,2.52c.48,1.33.42,3.67-2.86,4.84l-5.72,2-.62-1.74,5.52-2c1.54-.55,2.62-1.58,2-3.22a2.64,2.64,0,0,0-2.62-1.7,2.56,2.56,0,0,0-.85.17L169.63,69,169,67.26Z"/><path d="M117.31,72.63a8,8,0,0,0,1.45.92c19.16,4.41,24.54,16.89,19.56,35.27-4,14.75-12,27.53-21.26,39.53a6,6,0,0,1-4.12,2q-18.15.23-36.3,0a5.87,5.87,0,0,1-4.17-1.82c-9.89-13.34-18.89-27.18-22.4-43.81C46.8,89.14,52.69,78.77,67.88,74.27c3.35-1,4.54-2,3.73-5.71a103.93,103.93,0,0,1-2-16.24A5.5,5.5,0,0,1,72.2,48C87,41.44,102,41.4,117,47.64c2.65,1.11,3.35,2.69,3,5.35C119,59.52,118.17,66.07,117.31,72.63ZM92,56c0,10.81,0,21.07,0,31.34,0,6.13.24,12.29-.12,18.4a11.19,11.19,0,0,1-11.48,10.74A11,11,0,0,1,69,106.35c-.66-6.18,3.07-11.62,9.43-12.48,4.32-.58,4.06-2.71,3.52-5.66-12.5-1.08-21.86,10.52-18.12,22.08a17.56,17.56,0,0,0,18.37,12.19c8.33-1,14.47-7.75,15.43-16.34.38-3.48,1.12-7.36,3-10.11,3.13-4.46,10.06-4.44,14.23-.83A10.45,10.45,0,0,1,115.7,110c-4.66,5.38-9.78,10.37-14.36,15.83-2.81,3.34-5,7.22-7.41,10.86l1,1.39c2-.63,4.77-.64,6-2,6.54-7.23,12.7-14.81,19-22.25,5.11-6,5.61-13.92,1.25-20.18S108.79,85,101.35,88l-4,1.61V56Z"/></svg>