<svg id="Layer_1" data-name="Layer 1" xmlns="http://www.w3.org/2000/svg" width="185.97" height="186.22" viewBox="0 0 185.97 186.22"><defs><style>.cls-1{fill:#fff;}.cls-2{fill:#cecece;}.cls-3{fill:none;stroke:#000;stroke-miterlimit:10;stroke-width:8px;}</style></defs><path d="M40.47,18.42l6.47-4,.81,1.3-4.92,3.06,2.49,4,4.54-2.83.8,1.29L46.12,24l3.38,5.44-1.55,1Z"/><path d="M60.26,23.57l-.69-1.09-.06,0a3.76,3.76,0,0,1-2.14,2.72,2.9,2.9,0,0,1-4.07-1.28c-1.07-2.21.31-4.37,3.86-6.06l-.09-.19A2.1,2.1,0,0,0,54,16.58a5,5,0,0,0-2.05,1.83L51,17.5a6.3,6.3,0,0,1,2.62-2.27c2.79-1.35,4.4.23,5.28,2.06l1.66,3.42a13.67,13.67,0,0,0,1.21,2.12ZM57.75,19c-1.83.83-3.73,2.15-2.88,3.93a1.64,1.64,0,0,0,2.34.83,2.53,2.53,0,0,0,1.47-2.6,1.85,1.85,0,0,0-.16-.58Z"/><path d="M61.13,9.18A1.14,1.14,0,0,1,59,10a1.13,1.13,0,0,1,.67-1.49A1.1,1.1,0,0,1,61.13,9.18Zm2.71,12.89-3.62-9.49L62,11.92l3.62,9.5Z"/><path d="M66,13.86c-.35-1.14-.67-2.12-1-3l1.55-.47.64,1.89.08,0A3.06,3.06,0,0,1,69.26,9.3a1.67,1.67,0,0,1,.52-.09l.5,1.66a2.75,2.75,0,0,0-.62.13A2.6,2.6,0,0,0,68,14a6.38,6.38,0,0,0,.17.85L69.73,20,68,20.56Z"/><path d="M77.92,5.19l-4.26.66-.23-1.54L83.78,2.7,84,4.24l-4.27.66,1.93,12.45-1.83.29Z"/><path d="M85.44,9.87c-.08-1.2-.17-2.22-.29-3.16l1.61-.11.19,2H87a3,3,0,0,1,2.66-2.4,1.83,1.83,0,0,1,.53,0l.11,1.74a2.55,2.55,0,0,0-.63,0,2.6,2.6,0,0,0-2.32,2.53,6.09,6.09,0,0,0,0,.87l.36,5.4-1.83.12Z"/><path d="M97.61,16.64l-.11-1.29h-.07a3.78,3.78,0,0,1-3.15,1.42,2.9,2.9,0,0,1-3-3c.07-2.45,2.3-3.73,6.22-3.6V10a2.1,2.1,0,0,0-2.24-2.42,5.15,5.15,0,0,0-2.67.68L92.19,7a6.33,6.33,0,0,1,3.37-.8c3.11.09,3.8,2.23,3.74,4.27l-.11,3.8a13.49,13.49,0,0,0,.1,2.44Zm-.12-5.2c-2-.1-4.32.19-4.38,2.17a1.64,1.64,0,0,0,1.7,1.81,2.53,2.53,0,0,0,2.5-1.63,1.72,1.72,0,0,0,.12-.58Z"/><path d="M112.19,3.44,110.3,15.58c-.14.89-.28,1.91-.32,2.61l-1.64-.26.19-1.75h0a3.77,3.77,0,0,1-3.73,1.44c-2.42-.38-4-2.73-3.5-5.78.5-3.34,2.9-5.07,5.35-4.69a3.41,3.41,0,0,1,2.79,2h0l.93-6ZM109,11.94a3.46,3.46,0,0,0,0-.79,2.71,2.71,0,0,0-2.3-2.52c-1.89-.3-3.27,1.19-3.62,3.41-.31,2,.42,3.87,2.39,4.18a2.79,2.79,0,0,0,3-1.77,3,3,0,0,0,.2-.77Z"/><path d="M114.32,14.42a3.26,3.26,0,0,0,2.36,4.36,6.65,6.65,0,0,0,2.85.28l-.07,1.36a8.26,8.26,0,0,1-3.42-.34c-3-.88-4.22-3.37-3.37-6.32s3.27-4.75,6.11-3.92c3.19.92,3.22,4,2.7,5.77a6.75,6.75,0,0,1-.31.81Zm5.57.24c.35-1.12.38-3-1.62-3.6-1.79-.52-3.06.91-3.56,2.09Z"/><path d="M134.07,27.05A9.17,9.17,0,0,1,130.43,26c-3.56-1.79-5.11-5.39-3-9.54a7,7,0,0,1,9.94-3.31,7.57,7.57,0,0,1,2.72,2.07L139,16.32a6.73,6.73,0,0,0-2.29-1.81c-3-1.49-5.89-.59-7.56,2.73-1.56,3.09-.78,6,2.3,7.53a7.26,7.26,0,0,0,2.93.81Z"/><path d="M138.28,24.76a3.26,3.26,0,0,0,.92,4.87,6.71,6.71,0,0,0,2.62,1.14L141.34,32a8.15,8.15,0,0,1-3.15-1.37c-2.59-1.75-3-4.5-1.27-7s4.56-3.53,7-1.87c2.75,1.85,1.85,4.76.8,6.31a6.07,6.07,0,0,1-.53.68Zm5.23,1.93c.68-1,1.28-2.76-.44-3.92-1.55-1-3.19-.08-4,.9Z"/><path d="M147.27,28.41c.76-.93,1.4-1.73,2-2.5l1.24,1-1.22,1.57.06.06a3,3,0,0,1,3.59.08,2.13,2.13,0,0,1,.36.39l-1.11,1.34a2.39,2.39,0,0,0-.45-.45,2.57,2.57,0,0,0-3.42.24,5.68,5.68,0,0,0-.62.6L144.2,35l-1.4-1.17Z"/><path d="M158.69,30.45l-2.05,2.08,1.88,1.86-1,1-1.89-1.86-3.84,3.9c-.89.9-1.14,1.66-.4,2.38a3.7,3.7,0,0,0,.85.66l-.91,1.05a4.62,4.62,0,0,1-1.35-1,2.55,2.55,0,0,1-.87-1.95,3.77,3.77,0,0,1,1.35-2.39l3.89-4-1.12-1.1,1-1,1.12,1.1,1.71-1.73Z"/><path d="M152.45,42.84l7.6-6.74,1.23,1.39-7.61,6.73Zm11.11-7.09A1.14,1.14,0,0,1,162,34a1.12,1.12,0,0,1,1.63.1A1.1,1.1,0,0,1,163.56,35.75Z"/><path d="M155.41,46.17,162.47,41l-.85-1.15,1.14-.83.84,1.15.44-.32a4.08,4.08,0,0,1,6.2.94,5.06,5.06,0,0,1,1,2.48l-1.44.41a3.88,3.88,0,0,0-.8-2.07c-1.15-1.57-2.59-1.22-3.89-.26l-.41.29,3.5,4.76-8.19,6-1.08-1.47L166,45.74l-2.41-3.28-7.06,5.18Z"/><path d="M165.81,52.84a3.24,3.24,0,0,0-1.37,4.76,6.49,6.49,0,0,0,1.83,2.2l-1,.92a8.11,8.11,0,0,1-2.2-2.64c-1.53-2.73-.65-5.37,2-6.87s5.66-1.1,7.11,1.49c1.62,2.89-.5,5.09-2.13,6a7.85,7.85,0,0,1-.78.37Zm3.8,4.08c1-.56,2.39-1.89,1.37-3.7-.91-1.63-2.81-1.51-4-1Z"/><path d="M182.88,65.26l-11.4,4.58c-.83.34-1.78.74-2.4,1.06l-.62-1.54,1.61-.74,0,0a3.75,3.75,0,0,1-3.14-2.47c-.92-2.28.31-4.81,3.17-6,3.13-1.28,5.84-.1,6.77,2.2a3.38,3.38,0,0,1-.3,3.42v0l5.63-2.26ZM174,66.86a3.06,3.06,0,0,0,.69-.37,2.73,2.73,0,0,0,1-3.27c-.72-1.78-2.7-2.2-4.78-1.36-1.91.76-3.12,2.33-2.37,4.18a2.78,2.78,0,0,0,3,1.7,3.54,3.54,0,0,0,.78-.22Z"/><path d="M91.55,159.35c-34.55.17-62.16-28-62.72-61.46a62.85,62.85,0,1,1,62.72,61.46ZM69.14,46.5a23.8,23.8,0,0,0-7,8.07c-4.3,8.07-4.68,16.24-.43,24.47C65.64,86.6,72,91.33,79.88,93.87c6.26,2,12.71,3.43,19.11,5,8.3,2,16.3,4.71,23.57,9.31a27.44,27.44,0,0,1,8.36,8,24.32,24.32,0,0,1,3.62,9.3c.4,2.31.59,4.66.89,7.07a53.71,53.71,0,0,0,6.83-10.65A55.46,55.46,0,0,0,148,100.94a51.86,51.86,0,0,0-2.11-20.19,78.23,78.23,0,0,0-4.08-10.3,54.72,54.72,0,0,0-18.23-20.63A55.4,55.4,0,0,0,98,40.19a47.47,47.47,0,0,0-19.21,1.67,31.28,31.28,0,0,0-9.61,4.64m6.57,104.3a4.49,4.49,0,0,0,.4-.63c2.27-5.24,3.79-10.64,3.4-16.43a32.89,32.89,0,0,0-7.23-18.23C68,110.08,63.4,104.93,58.74,99.84c-3.59-3.91-6.9-7.94-9-12.88C46.65,79.49,46.52,71.81,48.1,64c.32-1.55.79-3.08,1.23-4.78A56.33,56.33,0,0,0,75.71,150.8Z"/><path class="cls-1" d="M89.43,40a47.8,47.8,0,0,1,8.53.23,55.4,55.4,0,0,1,25.6,9.63,54.72,54.72,0,0,1,18.23,20.63,78.23,78.23,0,0,1,4.08,10.3A51.86,51.86,0,0,1,148,100.94a55.46,55.46,0,0,1-5.72,20.91,53.71,53.71,0,0,1-6.83,10.65c-.3-2.41-.49-4.76-.89-7.07a24.32,24.32,0,0,0-3.62-9.3,27.44,27.44,0,0,0-8.36-8c-7.27-4.6-15.27-7.31-23.57-9.31-6.4-1.54-12.85-3-19.11-5C72,91.33,65.64,86.6,61.73,79c-4.25-8.23-3.87-16.4.43-24.47C65.75,47.84,71.64,44,78.75,41.86A46.16,46.16,0,0,1,89.43,40M100,92.36a15.17,15.17,0,1,0,0-30.33A15.36,15.36,0,0,0,84.87,76.77C84.62,85.35,91.89,92.67,100,92.36Z"/><path class="cls-2" d="M49.33,59.23c-.44,1.7-.91,3.23-1.23,4.78-1.58,7.8-1.45,15.48,1.67,22.95,2.07,4.94,5.38,9,9,12.88,4.66,5.09,9.29,10.24,13.54,15.67a32.89,32.89,0,0,1,7.23,18.23c.39,5.79-1.13,11.19-3.4,16.43a4.49,4.49,0,0,1-.4.63A56.33,56.33,0,0,1,49.33,59.23"/><path d="M100,92.36c-8.15.31-15.42-7-15.17-15.59A15.36,15.36,0,0,1,100.06,62a15.17,15.17,0,1,1,0,30.33Z"/><path class="cls-3" d="M34.59,33.21A85.26,85.26,0,1,0,175.17,79.36"/></svg>