<svg id="Layer_1" data-name="Layer 1" xmlns="http://www.w3.org/2000/svg" width="477.01" height="355.69" viewBox="0 0 477.01 355.69"><defs><style>.cls-1,.cls-2,.cls-3,.cls-4{fill:none;stroke:#fff;stroke-miterlimit:10;}.cls-2,.cls-3{stroke-width:0.75px;}.cls-3{stroke-dasharray:10.14 3.04;}.cls-4{stroke-width:0.5px;}.cls-5{fill:#fff;}.cls-6{fill:red;}.cls-7{fill:#e8b100;}.cls-8{fill:#6ba9c4;}</style></defs><line class="cls-1" x1="32.6" y1="309.66" x2="477.01" y2="309.66"/><line class="cls-2" x1="185.22" y1="309.66" x2="185.22" y2="304.66"/><line class="cls-3" x1="185.22" y1="301.62" x2="185.22" y2="13.19"/><line class="cls-2" x1="185.22" y1="11.67" x2="185.22" y2="6.67"/><line class="cls-2" x1="334.51" y1="309.66" x2="334.51" y2="304.66"/><line class="cls-3" x1="334.51" y1="301.62" x2="334.51" y2="13.19"/><line class="cls-2" x1="334.51" y1="11.67" x2="334.51" y2="6.67"/><line class="cls-2" x1="31.73" y1="310.86" x2="31.73" y2="6.1"/><line class="cls-4" x1="243.98" y1="25.86" x2="144.71" y2="25.86"/><polygon class="cls-5" points="145.44 23.36 141.12 25.86 145.44 28.35 145.44 23.36"/><line class="cls-4" x1="393.27" y1="95.56" x2="294.27" y2="95.56"/><polygon class="cls-5" points="295 93.07 290.68 95.56 295 98.05 295 93.07"/><path class="cls-5" d="M5.51,44.18H4.21V36.25a4.42,4.42,0,0,1-2.42.52v-1c1.58,0,2.49-.61,2.72-1.83h1Z"/><path class="cls-5" d="M10,38.74a3,3,0,0,1,2.29-1.1,2.87,2.87,0,0,1,2.14.92,3.27,3.27,0,0,1,.87,2.34,3.59,3.59,0,0,1-.87,2.44,2.84,2.84,0,0,1-2.29,1A3,3,0,0,1,9.6,43.09a6.19,6.19,0,0,1-.91-3.63q0-5.53,3.57-5.54a3,3,0,0,1,1.92.64,2.75,2.75,0,0,1,1,1.87H13.8a1.48,1.48,0,0,0-1.61-1.49,1.71,1.71,0,0,0-1.5,1A6.3,6.3,0,0,0,10,38.74Zm0,1a5.33,5.33,0,0,0,.6,2.67,1.74,1.74,0,0,0,1.53.92,1.58,1.58,0,0,0,1.34-.67A2.7,2.7,0,0,0,14,41a2.64,2.64,0,0,0-.51-1.67,1.64,1.64,0,0,0-1.37-.65A2.92,2.92,0,0,0,10,39.74Z"/><path class="cls-5" d="M19.81,33.92c2.19,0,3.29,1.75,3.29,5.23s-1.1,5.2-3.29,5.2-3.28-1.73-3.28-5.2S17.62,33.92,19.81,33.92Zm0,9.41a1.55,1.55,0,0,0,1.45-.92,7.49,7.49,0,0,0,.5-3.26,7.66,7.66,0,0,0-.5-3.28,1.59,1.59,0,0,0-2.89,0,7.66,7.66,0,0,0-.5,3.28,7.49,7.49,0,0,0,.5,3.26A1.55,1.55,0,0,0,19.81,43.33Z"/><path class="cls-5" d="M5.28,12.09H4V4.16a4.52,4.52,0,0,1-2.43.52v-1q2.37,0,2.73-1.83h1Z"/><path class="cls-5" d="M13,6.79c1.4.65,2.1,1.52,2.1,2.62a2.58,2.58,0,0,1-.92,2.06,3.54,3.54,0,0,1-2.41.79,3.53,3.53,0,0,1-2.4-.79,2.55,2.55,0,0,1-.92-2.06c0-1.1.7-2,2.1-2.62A2.86,2.86,0,0,1,8.82,4.33a2.28,2.28,0,0,1,.81-1.8,3.12,3.12,0,0,1,2.12-.7,3.13,3.13,0,0,1,2.13.7,2.3,2.3,0,0,1,.8,1.8A2.85,2.85,0,0,1,13,6.79Zm.76,2.62a1.51,1.51,0,0,0-.48-1.12,5,5,0,0,0-1.51-.94,5.12,5.12,0,0,0-1.51.94,1.54,1.54,0,0,0-.47,1.12,1.7,1.7,0,0,0,.54,1.34,2.06,2.06,0,0,0,1.44.49,2,2,0,0,0,1.44-.49A1.68,1.68,0,0,0,13.74,9.41Zm-2-3.16c1.06-.47,1.6-1.12,1.6-1.92a1.38,1.38,0,0,0-.43-1.09,1.65,1.65,0,0,0-1.17-.39,1.69,1.69,0,0,0-1.17.39,1.41,1.41,0,0,0-.42,1.09C10.16,5.13,10.69,5.78,11.75,6.25Z"/><path class="cls-5" d="M19.59,1.83q3.29,0,3.29,5.23t-3.29,5.2q-3.28,0-3.28-5.2T19.59,1.83Zm0,9.41A1.58,1.58,0,0,0,21,10.32a7.53,7.53,0,0,0,.49-3.26A7.66,7.66,0,0,0,21,3.78a1.6,1.6,0,0,0-2.9,0,7.66,7.66,0,0,0-.49,3.28,7.53,7.53,0,0,0,.49,3.26A1.57,1.57,0,0,0,19.59,11.24Z"/><path class="cls-5" d="M104.19,31.82H102.9V23.88a4.42,4.42,0,0,1-2.43.53v-1q2.37,0,2.73-1.83h1Z"/><path class="cls-5" d="M108.69,26.38a3,3,0,0,1,2.29-1.1,2.84,2.84,0,0,1,2.14.92,3.26,3.26,0,0,1,.87,2.34,3.65,3.65,0,0,1-.86,2.44,2.89,2.89,0,0,1-2.3,1,2.94,2.94,0,0,1-2.54-1.26,6.12,6.12,0,0,1-.91-3.63q0-5.54,3.56-5.54a3,3,0,0,1,1.92.63,2.79,2.79,0,0,1,1,1.88h-1.34a1.47,1.47,0,0,0-1.61-1.49,1.7,1.7,0,0,0-1.5,1A6.4,6.4,0,0,0,108.69,26.38Zm0,1a5.28,5.28,0,0,0,.6,2.66,1.73,1.73,0,0,0,1.53.93,1.59,1.59,0,0,0,1.34-.67,2.77,2.77,0,0,0,.5-1.68,2.62,2.62,0,0,0-.51-1.67,1.65,1.65,0,0,0-1.38-.66A2.92,2.92,0,0,0,108.68,27.38Z"/><path class="cls-5" d="M118.5,21.56q3.28,0,3.29,5.23T118.5,32q-3.28,0-3.28-5.2T118.5,21.56Zm0,9.41a1.58,1.58,0,0,0,1.45-.92,7.56,7.56,0,0,0,.49-3.26,7.63,7.63,0,0,0-.49-3.28,1.6,1.6,0,0,0-2.9,0,7.63,7.63,0,0,0-.49,3.28,7.56,7.56,0,0,0,.49,3.26A1.57,1.57,0,0,0,118.5,31Z"/><path class="cls-5" d="M101.84,335.16h-1.26v-8.58l-2.88,8.58H96.5l-2.87-8.58v8.58H92.36V325.08h2l2.74,8.4,2.74-8.4h2Z"/><path class="cls-5" d="M105.23,326.48h-1.3v-1.4h1.3Zm0,8.68h-1.3v-7.3h1.3Z"/><path class="cls-5" d="M108.44,328.79a2.86,2.86,0,0,1,2.18-1.09c1.65,0,2.47.89,2.47,2.69v4.77h-1.3v-4.72a2.05,2.05,0,0,0-.32-1.28,1.28,1.28,0,0,0-1-.4,2.71,2.71,0,0,0-2,1.17v5.23h-1.3v-7.3h1.3Z"/><path class="cls-5" d="M116.28,326.48H115v-1.4h1.3Zm0,8.68H115v-7.3h1.3Z"/><path class="cls-5" d="M119.49,328.79a2.86,2.86,0,0,1,2.18-1.09c1.65,0,2.47.89,2.47,2.69v4.77h-1.3v-4.72a2.05,2.05,0,0,0-.32-1.28,1.28,1.28,0,0,0-1-.4,2.71,2.71,0,0,0-2,1.17v5.23h-1.3v-7.3h1.3Z"/><path class="cls-5" d="M131.94,334.6q0,3.52-3.18,3.52a3.54,3.54,0,0,1-2.17-.6,1.9,1.9,0,0,1-.79-1.61h1.34c0,.8.54,1.2,1.61,1.2a1.9,1.9,0,0,0,1.4-.5,2.82,2.82,0,0,0,.5-2v-.36a2.77,2.77,0,0,1-4.3,0,4.43,4.43,0,0,1-.79-2.75,4.3,4.3,0,0,1,.88-2.83,2.79,2.79,0,0,1,2.21-1,2.89,2.89,0,0,1,2,.73v-.57h1.29Zm-1.29-1.54V329.6a2.59,2.59,0,0,0-1.92-.89,1.53,1.53,0,0,0-1.33.72,4.77,4.77,0,0,0,0,4.19,1.5,1.5,0,0,0,1.3.7A2.47,2.47,0,0,0,130.65,333.06Z"/><path class="cls-5" d="M66,355h-.88a10.14,10.14,0,0,1,0-13.22H66A11.68,11.68,0,0,0,66,355Z"/><path class="cls-5" d="M68.76,345.65a2.61,2.61,0,0,1,2.08-1,2.65,2.65,0,0,1,2.22,1,4.39,4.39,0,0,1,.78,2.74A4.28,4.28,0,0,1,73,351.2a2.76,2.76,0,0,1-2.21,1,2.87,2.87,0,0,1-2-.73v3.37h-1.3V344.77h1.3Zm0,4.69a2.54,2.54,0,0,0,1.91.88,1.54,1.54,0,0,0,1.34-.71,3.82,3.82,0,0,0,.49-2.15,3.58,3.58,0,0,0-.47-2,1.46,1.46,0,0,0-1.3-.7,2.48,2.48,0,0,0-2,1.25Z"/><path class="cls-5" d="M78.4,352.24a3.45,3.45,0,0,1-2.59-1,3.9,3.9,0,0,1-1-2.82,4,4,0,0,1,1-2.8,3.59,3.59,0,0,1,5,0,4,4,0,0,1,.93,2.82v.31h-5.5a2.85,2.85,0,0,0,.7,1.88,2.07,2.07,0,0,0,1.52.61,2.28,2.28,0,0,0,1.23-.34,1.18,1.18,0,0,0,.57-1h1.34a2.42,2.42,0,0,1-1,1.74A3.58,3.58,0,0,1,78.4,352.24Zm1.91-4.52a2.59,2.59,0,0,0-.71-1.58,2,2,0,0,0-2.68,0,2.57,2.57,0,0,0-.71,1.58Z"/><path class="cls-5" d="M86.92,346a2.63,2.63,0,0,0-.79-.09,2.06,2.06,0,0,0-1.7,1v5.16h-1.3v-7.3h1.3v1a2.32,2.32,0,0,1,1.9-1.18,3.07,3.07,0,0,1,.59.05Z"/><path class="cls-5" d="M94.53,341.81c2.19,0,3.28,1.75,3.28,5.23s-1.09,5.2-3.28,5.2-3.29-1.73-3.29-5.2S92.34,341.81,94.53,341.81Zm0,9.41A1.56,1.56,0,0,0,96,350.3a7.53,7.53,0,0,0,.49-3.26,7.69,7.69,0,0,0-.49-3.28,1.6,1.6,0,0,0-2.9,0,7.69,7.69,0,0,0-.49,3.28,7.53,7.53,0,0,0,.49,3.26A1.55,1.55,0,0,0,94.53,351.22Z"/><path class="cls-5" d="M101.11,352.07H99.7v-1.41h1.41Z"/><path class="cls-5" d="M106.28,341.81c2.19,0,3.28,1.75,3.28,5.23s-1.09,5.2-3.28,5.2S103,350.51,103,347,104.09,341.81,106.28,341.81Zm0,9.41a1.56,1.56,0,0,0,1.45-.92,7.53,7.53,0,0,0,.49-3.26,7.69,7.69,0,0,0-.49-3.28,1.6,1.6,0,0,0-2.9,0,7.69,7.69,0,0,0-.49,3.28,7.53,7.53,0,0,0,.49,3.26A1.55,1.55,0,0,0,106.28,351.22Z"/><path class="cls-5" d="M115.48,352.07h-1.29v-7.93a4.43,4.43,0,0,1-2.43.52v-1c1.58,0,2.49-.61,2.72-1.83h1Z"/><path class="cls-5" d="M128.77,352.07h-1.55l-2.37-3.71-.82.81v2.9h-1.3V342H124v5.71l2.82-2.93h1.64l-2.77,2.72Z"/><path class="cls-5" d="M135.7,351.51q0,3.53-3.18,3.52a3.52,3.52,0,0,1-2.17-.6,1.91,1.91,0,0,1-.8-1.61h1.34c0,.8.54,1.2,1.61,1.2a1.91,1.91,0,0,0,1.41-.5,2.84,2.84,0,0,0,.49-2v-.36a2.76,2.76,0,0,1-4.3,0,4.37,4.37,0,0,1-.78-2.74,4.27,4.27,0,0,1,.87-2.83,2.76,2.76,0,0,1,2.21-1,2.87,2.87,0,0,1,2,.73v-.57h1.3ZM134.4,350v-3.46a2.55,2.55,0,0,0-1.92-.89,1.55,1.55,0,0,0-1.33.72,3.78,3.78,0,0,0-.5,2.14,3.72,3.72,0,0,0,.47,2,1.51,1.51,0,0,0,1.31.69A2.45,2.45,0,0,0,134.4,350Z"/><path class="cls-5" d="M149.81,352.07h-1.5L147.14,349h-4.23l-1.11,3.07h-1.41L144.26,342h1.44Zm-3.07-4.13L145,343.26l-1.69,4.68Z"/><path class="cls-5" d="M155.38,351.14a2.84,2.84,0,0,1-2.18,1.1c-1.65,0-2.47-.9-2.47-2.69v-4.78H152v4.72a2.07,2.07,0,0,0,.31,1.29,1.29,1.29,0,0,0,1,.39,2.53,2.53,0,0,0,2-1.17v-5.23h1.29v7.3h-1.29Z"/><path class="cls-5" d="M159,341.81A10.14,10.14,0,0,1,159,355h-.89a11.63,11.63,0,0,0,0-13.22Z"/><path class="cls-5" d="M51,297.18a4.68,4.68,0,0,1-1.42,3.53,5.3,5.3,0,0,1-3.8,1.35A5.31,5.31,0,0,1,42,300.73a4.57,4.57,0,0,1-1.42-3.5,5,5,0,0,1,.88-3,3.15,3.15,0,0,1,2.35-1.36v1.39a1.92,1.92,0,0,0-1.53.88,3.6,3.6,0,0,0-.56,2.1,3.24,3.24,0,0,0,1.07,2.52,4.37,4.37,0,0,0,3,.95,4.37,4.37,0,0,0,3-1,3.26,3.26,0,0,0,1.07-2.52A3.74,3.74,0,0,0,48.45,294H46.92v2.66H45.71v-4h5.15v.95L49.8,294A4,4,0,0,1,51,297.18Z"/><path class="cls-5" d="M40.77,278.6l10.09,2.79v1.28l-8.77,2.43,8.77,2.42v1.28l-10.09,2.79v-1.4l8.22-2-8.22-2.27v-1.6L49,282l-8.22-2Z"/><path class="cls-5" d="M40.77,277.34v-3.77A8.1,8.1,0,0,1,41,271.5a2.29,2.29,0,0,1,1-1.33,3.17,3.17,0,0,1,1.72-.49,2.8,2.8,0,0,1,2.31,1,4.31,4.31,0,0,1,.8,2.8V276h4v1.34ZM45.63,276v-2.55a2.75,2.75,0,0,0-.48-1.83,1.74,1.74,0,0,0-1.39-.55,2,2,0,0,0-1.08.3,1.3,1.3,0,0,0-.59.77,5.65,5.65,0,0,0-.12,1.34V276Z"/><path class="cls-5" d="M53.66,261.63v2.74H40.77v-2.74h1v1.44H52.63v-1.44Z"/><path class="cls-5" d="M50.86,254.42V256l-3.71,2.37.8.81h2.91v1.3H40.77v-1.3h5.72l-2.93-2.81V254.7l2.72,2.77Z"/><path class="cls-5" d="M50.29,247.49q3.52,0,3.53,3.18a3.52,3.52,0,0,1-.6,2.17,1.91,1.91,0,0,1-1.61.79v-1.34c.8,0,1.19-.53,1.19-1.61a1.9,1.9,0,0,0-.49-1.4,2.85,2.85,0,0,0-2-.5H50a2.75,2.75,0,0,1,0,4.3,4.33,4.33,0,0,1-2.74.79,4.21,4.21,0,0,1-2.83-.88,2.75,2.75,0,0,1-1-2.2,3,3,0,0,1,.73-2h-.56v-1.29Zm-1.53,1.29H45.29a2.59,2.59,0,0,0-.89,1.92,1.53,1.53,0,0,0,.72,1.33,3.73,3.73,0,0,0,2.15.5,3.58,3.58,0,0,0,2-.47,1.48,1.48,0,0,0,.7-1.3A2.49,2.49,0,0,0,48.76,248.78Z"/><path class="cls-5" d="M51,237.43a4.38,4.38,0,0,1-1.41,3.42,5.45,5.45,0,0,1-3.81,1.27,5.42,5.42,0,0,1-3.8-1.27,4.38,4.38,0,0,1-1.41-3.42,4.46,4.46,0,0,1,.89-2.8,3.25,3.25,0,0,1,2.34-1.3v1.38a2,2,0,0,0-1.52.83,3.34,3.34,0,0,0,.49,4.31,4.56,4.56,0,0,0,3,.89,4.54,4.54,0,0,0,3-.89,3,3,0,0,0,1.06-2.4,3,3,0,0,0-.58-1.92,2.28,2.28,0,0,0-1.65-.82v-1.38a3.41,3.41,0,0,1,2.49,1.27A4.41,4.41,0,0,1,51,237.43Z"/><path class="cls-5" d="M40.6,227.11A4.58,4.58,0,0,1,42,223.64a5.32,5.32,0,0,1,3.78-1.34,5.35,5.35,0,0,1,3.79,1.34,4.93,4.93,0,0,1,0,7A5.23,5.23,0,0,1,45.81,232,5.25,5.25,0,0,1,42,230.59,4.58,4.58,0,0,1,40.6,227.11Zm9.29,0a3.17,3.17,0,0,0-1.08-2.48,4.28,4.28,0,0,0-3-1,4.36,4.36,0,0,0-3,1,3.17,3.17,0,0,0-1.07,2.46,3.23,3.23,0,0,0,1.07,2.49,4.32,4.32,0,0,0,3,1,4.36,4.36,0,0,0,3-1A3.18,3.18,0,0,0,49.89,227.13Z"/><path class="cls-5" d="M50.86,214.54v6.68a3,3,0,0,1-1.76-.58A10.62,10.62,0,0,1,47,218.55a13.47,13.47,0,0,0-2-2.09,2.68,2.68,0,0,0-1.66-.56,1.74,1.74,0,0,0-1.31.48,1.83,1.83,0,0,0-.48,1.35,1.88,1.88,0,0,0,.48,1.3,2,2,0,0,0,1.42.6V221a3.14,3.14,0,0,1-2.13-1,3.27,3.27,0,0,1-.79-2.29,3.17,3.17,0,0,1,.81-2.33,2.74,2.74,0,0,1,2-.82,3.21,3.21,0,0,1,2,.61,14.84,14.84,0,0,1,2.34,2.4c1,1.2,1.65,1.81,1.94,1.84v-4.87Z"/><path class="cls-5" d="M47.83,205.83v3.79H46.58v-3.79Z"/><path class="cls-5" d="M50.86,193v7.52H40.77v-7.29H42v5.95h3.08v-5.56h1.2v5.56h3.41V193Z"/><path class="cls-5" d="M53.66,185.36v1.3H50a2.75,2.75,0,0,1,0,4.3,4.39,4.39,0,0,1-2.74.78,4.26,4.26,0,0,1-2.83-.87,2.78,2.78,0,0,1-1-2.21,2.91,2.91,0,0,1,.73-2h-.56v-1.3Zm-4.9,1.3H45.29a2.59,2.59,0,0,0-.89,1.92,1.55,1.55,0,0,0,.72,1.33,3.81,3.81,0,0,0,2.15.5,3.66,3.66,0,0,0,2-.47,1.49,1.49,0,0,0,.7-1.31A2.48,2.48,0,0,0,48.76,186.66Z"/><path class="cls-5" d="M50.86,181.74v1.41H49.45v-1.41Z"/><path class="cls-5" d="M53.66,177.53v2.73h-1v-1.44H41.8v1.44h-1v-2.73Z"/><path class="cls-5" d="M252.38,325.08l-2.79,10.08h-1.28l-2.42-8.76-2.43,8.76h-1.28l-2.79-10.08h1.4l2,8.21,2.27-8.21h1.6l2.27,8.21,2-8.21Z"/><path class="cls-5" d="M261.17,335.16h-7.52V325.08h7.28v1.19h-6v3.09h5.57v1.19H255V334h6.19Z"/><path class="cls-5" d="M270.56,335.16H263V325.08h7.29v1.19h-5.95v3.09h5.56v1.19h-5.56V334h6.18Z"/><path class="cls-5" d="M280,335.16h-7.52V325.08h7.29v1.19h-6v3.09h5.56v1.19h-5.56V334H280Z"/><path class="cls-5" d="M217.81,355h-.89a10.14,10.14,0,0,1,0-13.22h.89a11.63,11.63,0,0,0,0,13.22Z"/><path class="cls-5" d="M220.57,345.65a2.77,2.77,0,0,1,4.3,0,4.33,4.33,0,0,1,.79,2.74,4.23,4.23,0,0,1-.88,2.84,2.74,2.74,0,0,1-2.21,1,2.89,2.89,0,0,1-2-.73v3.37h-1.3V344.77h1.3Zm0,4.69a2.58,2.58,0,0,0,1.92.88,1.52,1.52,0,0,0,1.33-.71,3.81,3.81,0,0,0,.5-2.15,3.66,3.66,0,0,0-.47-2,1.48,1.48,0,0,0-1.31-.7,2.49,2.49,0,0,0-2,1.25Z"/><path class="cls-5" d="M230.21,352.24a3.43,3.43,0,0,1-2.58-1,4.57,4.57,0,0,1,0-5.62,3.58,3.58,0,0,1,5,0,4,4,0,0,1,.94,2.82v.31H228a2.8,2.8,0,0,0,.7,1.88,2,2,0,0,0,1.51.61,2.23,2.23,0,0,0,1.23-.34,1.16,1.16,0,0,0,.58-1h1.34a2.42,2.42,0,0,1-1,1.74A3.59,3.59,0,0,1,230.21,352.24Zm1.92-4.52a2.71,2.71,0,0,0-.71-1.58,2,2,0,0,0-2.69,0,2.56,2.56,0,0,0-.7,1.58Z"/><path class="cls-5" d="M238.74,346a2.72,2.72,0,0,0-.79-.09,2,2,0,0,0-1.7,1v5.16H235v-7.3h1.3v1a2.31,2.31,0,0,1,1.9-1.18,3.13,3.13,0,0,1,.59.05Z"/><path class="cls-5" d="M246.34,341.81c2.19,0,3.29,1.75,3.29,5.23s-1.1,5.2-3.29,5.2-3.28-1.73-3.28-5.2S244.15,341.81,246.34,341.81Zm0,9.41a1.55,1.55,0,0,0,1.45-.92,7.49,7.49,0,0,0,.5-3.26,7.66,7.66,0,0,0-.5-3.28,1.59,1.59,0,0,0-2.89,0,7.5,7.5,0,0,0-.5,3.28,7.34,7.34,0,0,0,.5,3.26A1.55,1.55,0,0,0,246.34,351.22Z"/><path class="cls-5" d="M252.92,352.07h-1.41v-1.41h1.41Z"/><path class="cls-5" d="M259.46,352.07h-1.29v-7.93a4.48,4.48,0,0,1-2.43.52v-1c1.58,0,2.49-.61,2.72-1.83h1Z"/><path class="cls-5" d="M272.75,352.07H271.2l-2.38-3.71-.81.81v2.9h-1.3V342H268v5.71l2.82-2.93h1.63l-2.76,2.72Z"/><path class="cls-5" d="M279.67,351.51q0,3.53-3.18,3.52a3.54,3.54,0,0,1-2.17-.6,1.9,1.9,0,0,1-.79-1.61h1.34c0,.8.54,1.2,1.61,1.2a1.89,1.89,0,0,0,1.4-.5,2.84,2.84,0,0,0,.5-2v-.36a2.76,2.76,0,0,1-4.3,0,4.37,4.37,0,0,1-.78-2.74,4.27,4.27,0,0,1,.87-2.83,2.76,2.76,0,0,1,2.21-1,2.89,2.89,0,0,1,2,.73v-.57h1.29ZM278.38,350v-3.46a2.55,2.55,0,0,0-1.92-.89,1.55,1.55,0,0,0-1.33.72,3.78,3.78,0,0,0-.5,2.14,3.72,3.72,0,0,0,.47,2,1.51,1.51,0,0,0,1.31.69A2.45,2.45,0,0,0,278.38,350Z"/><path class="cls-5" d="M293.79,352.07h-1.51L291.11,349h-4.22l-1.11,3.07h-1.41L288.24,342h1.44Zm-3.07-4.13L289,343.26l-1.69,4.68Z"/><path class="cls-5" d="M299.36,351.14a2.86,2.86,0,0,1-2.18,1.1c-1.65,0-2.47-.9-2.47-2.69v-4.78H296v4.72a2.07,2.07,0,0,0,.31,1.29,1.27,1.27,0,0,0,1.05.39,2.54,2.54,0,0,0,2-1.17v-5.23h1.29v7.3h-1.29Z"/><path class="cls-5" d="M303,341.81A10.14,10.14,0,0,1,303,355h-.89a11.63,11.63,0,0,0,0-13.22Z"/><path class="cls-5" d="M351.15,335.16h-1.34v-4.74h-5.24v4.74h-1.34V325.08h1.34v4.14h5.24v-4.14h1.34Z"/><path class="cls-5" d="M354.54,326.48h-1.3v-1.4h1.3Zm0,8.68h-1.3v-7.3h1.3Z"/><path class="cls-5" d="M362.37,334.6q0,3.52-3.18,3.52a3.52,3.52,0,0,1-2.17-.6,1.91,1.91,0,0,1-.8-1.61h1.34c0,.8.54,1.2,1.61,1.2a1.91,1.91,0,0,0,1.41-.5,2.83,2.83,0,0,0,.49-2v-.36a2.59,2.59,0,0,1-2.08,1,2.65,2.65,0,0,1-2.22-1,4.42,4.42,0,0,1-.78-2.75,4.24,4.24,0,0,1,.88-2.83,2.77,2.77,0,0,1,2.2-1,2.87,2.87,0,0,1,2,.73v-.57h1.3Zm-1.3-1.54V329.6a2.59,2.59,0,0,0-1.92-.89,1.56,1.56,0,0,0-1.33.72,3.78,3.78,0,0,0-.5,2.14,3.63,3.63,0,0,0,.48,2.05,1.49,1.49,0,0,0,1.3.7A2.46,2.46,0,0,0,361.07,333.06Z"/><path class="cls-5" d="M365.59,328.79a2.85,2.85,0,0,1,2.18-1.09c1.64,0,2.47.89,2.47,2.69v4.77h-1.3v-4.72a2.05,2.05,0,0,0-.32-1.28,1.31,1.31,0,0,0-1.05-.4,2.71,2.71,0,0,0-2,1.17v5.23h-1.3V325.08h1.3Z"/><path class="cls-5" d="M384.21,325.08l-3.92,10.08h-1.38L375,325.08h1.43l3.18,8.65,3.19-8.65Z"/><path class="cls-5" d="M389.89,334.41a3.58,3.58,0,0,1-2.56.92,2.67,2.67,0,0,1-1.78-.58,1.91,1.91,0,0,1-.71-1.52q0-2.57,4.41-2.56h.64a5.17,5.17,0,0,0-.09-1.14.93.93,0,0,0-.46-.59,2.42,2.42,0,0,0-1.2-.23c-1.16,0-1.75.41-1.79,1.24h-1.29q.13-2.25,3.15-2.25a3.7,3.7,0,0,1,2.19.56,2.53,2.53,0,0,1,.78,2.18v4.72h-1.29Zm0-1.17v-1.61H389q-2.82,0-2.82,1.53a1,1,0,0,0,.41.86,1.88,1.88,0,0,0,1.12.3,2.81,2.81,0,0,0,1.23-.29A2.48,2.48,0,0,0,389.89,333.24Z"/><path class="cls-5" d="M394.4,335.16h-1.3V325.08h1.3Z"/><path class="cls-5" d="M400.94,334.23a2.86,2.86,0,0,1-2.18,1.1c-1.65,0-2.47-.89-2.47-2.69v-4.78h1.3v4.72a2.07,2.07,0,0,0,.31,1.29,1.27,1.27,0,0,0,1.05.39,2.56,2.56,0,0,0,2-1.17v-5.23h1.29v7.3h-1.29Z"/><path class="cls-5" d="M407.25,335.33a3.43,3.43,0,0,1-2.58-1,3.83,3.83,0,0,1-1-2.81,4,4,0,0,1,.94-2.81,3.57,3.57,0,0,1,5,0,4,4,0,0,1,.93,2.82v.31H405a2.76,2.76,0,0,0,.69,1.87,2.09,2.09,0,0,0,1.52.62,2.24,2.24,0,0,0,1.23-.35,1.15,1.15,0,0,0,.57-1h1.35a2.43,2.43,0,0,1-1,1.74A3.56,3.56,0,0,1,407.25,335.33Zm1.91-4.52a2.67,2.67,0,0,0-.7-1.58,2,2,0,0,0-2.69,0,2.65,2.65,0,0,0-.71,1.58Z"/><path class="cls-5" d="M424.31,335.16h-1.45l-.95-2.69a2.59,2.59,0,0,0-.84-1.17,2.2,2.2,0,0,0-1.36-.45h-2.48v4.31H415.9V325.08h4.47a6.77,6.77,0,0,1,1.91.22,2.21,2.21,0,0,1,1.21,1,3,3,0,0,1,.47,1.64,2.61,2.61,0,0,1-.61,1.75,2.87,2.87,0,0,1-1.66.92v0a2.73,2.73,0,0,1,1.61,1.83Zm-7.08-5.51h3a3.24,3.24,0,0,0,1.81-.39,1.55,1.55,0,0,0,.56-1.36c0-1.14-.72-1.72-2.16-1.72h-3.19Z"/><path class="cls-5" d="M429,335.33a3.44,3.44,0,0,1-2.59-1,3.87,3.87,0,0,1-1-2.81,4,4,0,0,1,.95-2.81,3.57,3.57,0,0,1,5,0,4,4,0,0,1,.93,2.82v.31h-5.5a2.82,2.82,0,0,0,.7,1.87,2.07,2.07,0,0,0,1.52.62,2.23,2.23,0,0,0,1.22-.35,1.16,1.16,0,0,0,.58-1h1.34a2.42,2.42,0,0,1-1,1.74A3.58,3.58,0,0,1,429,335.33Zm1.91-4.52a2.68,2.68,0,0,0-.71-1.58,1.89,1.89,0,0,0-1.35-.52,1.86,1.86,0,0,0-1.33.52,2.59,2.59,0,0,0-.71,1.58Z"/><path class="cls-5" d="M436.7,335.33a3.23,3.23,0,0,1-2.49-1,4.73,4.73,0,0,1,0-5.63,3.61,3.61,0,0,1,4.49-.4,2.48,2.48,0,0,1,.94,1.75h-1.33a1.25,1.25,0,0,0-.49-1,2,2,0,0,0-2.63.37,4.07,4.07,0,0,0,0,4.19,1.87,1.87,0,0,0,1.51.71,1.84,1.84,0,0,0,1.12-.35,1.23,1.23,0,0,0,.49-1h1.33a2.46,2.46,0,0,1-.94,1.75A3.25,3.25,0,0,1,436.7,335.33Z"/><path class="cls-5" d="M441.2,336.92c.64,0,1.16-.58,1.57-1.76l-2.76-7.3h1.41l1.93,5.71,1.93-5.71h1.41l-2.76,7.3c-.27.7-.49,1.24-.68,1.62a2.87,2.87,0,0,1-.73,1,1.63,1.63,0,0,1-1.1.39,3.37,3.37,0,0,1-.84-.09v-1.2A2.16,2.16,0,0,0,441.2,336.92Z"/><path class="cls-5" d="M450.79,335.33a3.23,3.23,0,0,1-2.49-1,4.73,4.73,0,0,1,0-5.63,3.61,3.61,0,0,1,4.49-.4,2.48,2.48,0,0,1,.94,1.75H452.4a1.25,1.25,0,0,0-.49-1,2,2,0,0,0-2.63.37,4.07,4.07,0,0,0,0,4.19,1.87,1.87,0,0,0,1.51.71,1.84,1.84,0,0,0,1.12-.35,1.23,1.23,0,0,0,.49-1h1.33a2.46,2.46,0,0,1-.94,1.75A3.25,3.25,0,0,1,450.79,335.33Z"/><path class="cls-5" d="M456.18,335.16h-1.3V325.08h1.3Z"/><path class="cls-5" d="M459.39,326.48h-1.3v-1.4h1.3Zm0,8.68h-1.3v-7.3h1.3Z"/><path class="cls-5" d="M462.6,328.79a2.88,2.88,0,0,1,2.18-1.09c1.65,0,2.47.89,2.47,2.69v4.77H466v-4.72a2,2,0,0,0-.32-1.28,1.28,1.28,0,0,0-1.05-.4,2.71,2.71,0,0,0-2,1.17v5.23h-1.3v-7.3h1.3Z"/><path class="cls-5" d="M475.05,334.6q0,3.52-3.17,3.52a3.55,3.55,0,0,1-2.18-.6,1.9,1.9,0,0,1-.79-1.61h1.34c0,.8.54,1.2,1.61,1.2a1.93,1.93,0,0,0,1.41-.5,2.83,2.83,0,0,0,.49-2v-.36a2.77,2.77,0,0,1-4.3,0,4.42,4.42,0,0,1-.78-2.75,4.29,4.29,0,0,1,.87-2.83,2.79,2.79,0,0,1,2.21-1,2.89,2.89,0,0,1,2,.73v-.57h1.29Zm-1.29-1.54V329.6a2.59,2.59,0,0,0-1.92-.89,1.55,1.55,0,0,0-1.33.72,3.78,3.78,0,0,0-.5,2.14,3.72,3.72,0,0,0,.47,2.05,1.51,1.51,0,0,0,1.31.7A2.46,2.46,0,0,0,473.76,333.06Z"/><path class="cls-5" d="M372.78,355h-.89a10.14,10.14,0,0,1,0-13.22h.89a11.63,11.63,0,0,0,0,13.22Z"/><path class="cls-5" d="M375.55,345.65a2.59,2.59,0,0,1,2.08-1,2.67,2.67,0,0,1,2.22,1,4.39,4.39,0,0,1,.78,2.74,4.23,4.23,0,0,1-.88,2.84,2.74,2.74,0,0,1-2.21,1,2.84,2.84,0,0,1-2-.73v3.37h-1.3V344.77h1.3Zm0,4.69a2.54,2.54,0,0,0,1.91.88,1.52,1.52,0,0,0,1.33-.71,3.81,3.81,0,0,0,.5-2.15,3.66,3.66,0,0,0-.47-2,1.48,1.48,0,0,0-1.31-.7,2.46,2.46,0,0,0-2,1.25Z"/><path class="cls-5" d="M385.18,352.24a3.43,3.43,0,0,1-2.58-1,3.9,3.9,0,0,1-1-2.82,4,4,0,0,1,.95-2.8,3.58,3.58,0,0,1,5,0,4,4,0,0,1,.94,2.82v.31H383a2.8,2.8,0,0,0,.7,1.88,2,2,0,0,0,1.51.61,2.23,2.23,0,0,0,1.23-.34,1.16,1.16,0,0,0,.58-1h1.34a2.42,2.42,0,0,1-1,1.74A3.59,3.59,0,0,1,385.18,352.24Zm1.92-4.52a2.65,2.65,0,0,0-.71-1.58,1.89,1.89,0,0,0-1.35-.52,1.86,1.86,0,0,0-1.33.52,2.51,2.51,0,0,0-.71,1.58Z"/><path class="cls-5" d="M393.71,346a2.67,2.67,0,0,0-.79-.09,2,2,0,0,0-1.7,1v5.16h-1.3v-7.3h1.3v1a2.31,2.31,0,0,1,1.9-1.18,3.13,3.13,0,0,1,.59.05Z"/><path class="cls-5" d="M402.68,352.07h-1.29v-7.93a4.48,4.48,0,0,1-2.43.52v-1c1.58,0,2.49-.61,2.72-1.83h1Z"/><path class="cls-5" d="M416,352.07h-1.55L412,348.36l-.81.81v2.9h-1.3V342h1.3v5.71l2.82-2.93h1.63l-2.76,2.72Z"/><path class="cls-5" d="M422.89,351.51q0,3.53-3.18,3.52a3.54,3.54,0,0,1-2.17-.6,1.9,1.9,0,0,1-.79-1.61h1.34c0,.8.54,1.2,1.61,1.2a1.89,1.89,0,0,0,1.4-.5,2.79,2.79,0,0,0,.5-2v-.36a2.76,2.76,0,0,1-4.3,0,4.37,4.37,0,0,1-.78-2.74,4.27,4.27,0,0,1,.87-2.83,2.76,2.76,0,0,1,2.21-1,2.89,2.89,0,0,1,2,.73v-.57h1.29ZM421.6,350v-3.46a2.55,2.55,0,0,0-1.92-.89,1.55,1.55,0,0,0-1.33.72,3.78,3.78,0,0,0-.5,2.14,3.72,3.72,0,0,0,.47,2,1.51,1.51,0,0,0,1.31.69A2.45,2.45,0,0,0,421.6,350Z"/><path class="cls-5" d="M437,352.07H435.5L434.33,349h-4.22L429,352.07h-1.41L431.46,342h1.44Zm-3.07-4.13-1.77-4.68-1.69,4.68Z"/><path class="cls-5" d="M442.58,351.14a2.86,2.86,0,0,1-2.18,1.1c-1.65,0-2.47-.9-2.47-2.69v-4.78h1.3v4.72a2.07,2.07,0,0,0,.31,1.29,1.27,1.27,0,0,0,1,.39,2.54,2.54,0,0,0,2-1.17v-5.23h1.29v7.3h-1.29Z"/><path class="cls-5" d="M446.23,341.81a10.14,10.14,0,0,1,0,13.22h-.89a11.63,11.63,0,0,0,0-13.22Z"/><path class="cls-5" d="M252.2,133.06h-1.29v-7.93a4.43,4.43,0,0,1-2.43.52v-1q2.37,0,2.73-1.83h1Z"/><path class="cls-5" d="M258.67,122.8c2.19,0,3.29,1.75,3.29,5.23s-1.1,5.2-3.29,5.2-3.28-1.73-3.28-5.2S256.48,122.8,258.67,122.8Zm0,9.41a1.55,1.55,0,0,0,1.45-.92,7.49,7.49,0,0,0,.5-3.26,7.66,7.66,0,0,0-.5-3.28,1.59,1.59,0,0,0-2.89,0,7.66,7.66,0,0,0-.5,3.28,7.49,7.49,0,0,0,.5,3.26A1.55,1.55,0,0,0,258.67,132.21Z"/><path class="cls-5" d="M266.51,122.8c2.19,0,3.29,1.75,3.29,5.23s-1.1,5.2-3.29,5.2-3.28-1.73-3.28-5.2S264.32,122.8,266.51,122.8Zm0,9.41a1.55,1.55,0,0,0,1.45-.92,7.49,7.49,0,0,0,.5-3.26,7.66,7.66,0,0,0-.5-3.28,1.6,1.6,0,0,0-2.9,0,7.69,7.69,0,0,0-.49,3.28,7.53,7.53,0,0,0,.49,3.26A1.56,1.56,0,0,0,266.51,132.21Z"/><path class="cls-5" d="M400.8,202a2.9,2.9,0,0,1,1.87-.61,3.09,3.09,0,0,1,2.2.9,3.12,3.12,0,0,1,.93,2.37,3.64,3.64,0,0,1-.94,2.58,3.23,3.23,0,0,1-2.5,1,3.49,3.49,0,0,1-2.19-.71,2.93,2.93,0,0,1-1.05-2.11h1.34a2.06,2.06,0,0,0,.64,1.36,1.92,1.92,0,0,0,1.26.44,1.85,1.85,0,0,0,1.52-.71,2.64,2.64,0,0,0,.58-1.75,2.31,2.31,0,0,0-.59-1.67,2,2,0,0,0-1.54-.61,2.35,2.35,0,0,0-1.83.83h-1l.42-5.33h5.41v1.2H401Z"/><path class="cls-5" d="M411.68,202.59a2.42,2.42,0,0,1,1.42.94,2.72,2.72,0,0,1,.5,1.63,2.94,2.94,0,0,1-1,2.27,3.75,3.75,0,0,1-4.69.09,2.8,2.8,0,0,1-1-2.05h1.35a1.8,1.8,0,0,0,.5,1.28,1.89,1.89,0,0,0,1.44.53,1.86,1.86,0,0,0,1.44-.58,2.16,2.16,0,0,0,.54-1.52,1.86,1.86,0,0,0-.56-1.46,2.32,2.32,0,0,0-1.63-.51h-.5v-1h.3q1.89,0,1.89-1.74a1.65,1.65,0,0,0-3.3,0h-1.33a2.78,2.78,0,0,1,1-2,3.16,3.16,0,0,1,2.05-.67,3.09,3.09,0,0,1,2.15.73,2.46,2.46,0,0,1,.8,1.89,2.33,2.33,0,0,1-.35,1.22A2.17,2.17,0,0,1,411.68,202.59Z"/><path class="cls-5" d="M144.93,20.23a4.64,4.64,0,0,1-3.19-.95,3.31,3.31,0,0,1-1.11-2.46h1.28a2.09,2.09,0,0,0,.94,1.67,3.65,3.65,0,0,0,2,.54,3.26,3.26,0,0,0,1.81-.46,1.46,1.46,0,0,0,.68-1.26,1.28,1.28,0,0,0-.71-1.21,10,10,0,0,0-2.44-.74,5.75,5.75,0,0,1-2.48-1,2.21,2.21,0,0,1-.75-1.75,2.43,2.43,0,0,1,1-2,4,4,0,0,1,2.6-.79,4.47,4.47,0,0,1,2.75.79,2.81,2.81,0,0,1,1.11,2.24h-1.3c-.13-1.22-1-1.83-2.5-1.83a3,3,0,0,0-1.73.42,1.28,1.28,0,0,0-.61,1.11,1,1,0,0,0,.49,1,6.09,6.09,0,0,0,1.84.61,18.58,18.58,0,0,1,2.13.59,3.38,3.38,0,0,1,1.36.9,2.32,2.32,0,0,1,.56,1.63,2.68,2.68,0,0,1-1,2.16A4,4,0,0,1,144.93,20.23Z"/><path class="cls-5" d="M153.31,20.23a3.23,3.23,0,0,1-2.49-1,4,4,0,0,1-.93-2.82,4,4,0,0,1,.93-2.82,3.26,3.26,0,0,1,2.49-1,3.23,3.23,0,0,1,2,.61,2.47,2.47,0,0,1,.95,1.75h-1.33a1.24,1.24,0,0,0-.5-1,1.81,1.81,0,0,0-1.11-.34,1.85,1.85,0,0,0-1.51.7,3.23,3.23,0,0,0-.58,2.1,3.23,3.23,0,0,0,.58,2.1,1.85,1.85,0,0,0,1.51.7,1.81,1.81,0,0,0,1.11-.34,1.24,1.24,0,0,0,.5-1h1.33a2.49,2.49,0,0,1-.95,1.75A3.22,3.22,0,0,1,153.31,20.23Z"/><path class="cls-5" d="M162,19.31a3.65,3.65,0,0,1-2.56.92,2.67,2.67,0,0,1-1.79-.59,1.89,1.89,0,0,1-.7-1.51q0-2.56,4.41-2.56H162a5.11,5.11,0,0,0-.09-1.14.94.94,0,0,0-.46-.59,2.31,2.31,0,0,0-1.2-.23c-1.16,0-1.75.41-1.79,1.23h-1.29q.13-2.25,3.15-2.25a3.72,3.72,0,0,1,2.18.56,2.52,2.52,0,0,1,.79,2.19v4.72H162Zm0-1.17V16.52h-.89c-1.88,0-2.82.52-2.82,1.54a1,1,0,0,0,.41.85,1.87,1.87,0,0,0,1.11.3,2.72,2.72,0,0,0,1.24-.29A2.37,2.37,0,0,0,162,18.14Z"/><path class="cls-5" d="M166.53,20.06h-1.3V10h1.3Z"/><path class="cls-5" d="M169.74,11.38h-1.3V10h1.3Zm0,8.68h-1.3v-7.3h1.3Z"/><path class="cls-5" d="M173,13.69a2.86,2.86,0,0,1,2.18-1.1c1.64,0,2.47.9,2.47,2.7v4.77h-1.3V15.34a2.07,2.07,0,0,0-.32-1.29,1.3,1.3,0,0,0-1.05-.39,2.71,2.71,0,0,0-2,1.17v5.23h-1.31v-7.3H173Z"/><path class="cls-5" d="M185.41,19.5c0,2.34-1.06,3.52-3.18,3.52a3.52,3.52,0,0,1-2.17-.6,1.92,1.92,0,0,1-.8-1.61h1.35c0,.8.53,1.2,1.61,1.2a1.9,1.9,0,0,0,1.4-.5,2.86,2.86,0,0,0,.49-2v-.36a2.62,2.62,0,0,1-2.08,1,2.65,2.65,0,0,1-2.22-1,4.39,4.39,0,0,1-.78-2.74,4.22,4.22,0,0,1,.88-2.83,2.75,2.75,0,0,1,2.2-1.05,2.91,2.91,0,0,1,2,.73v-.56h1.3ZM184.11,18V14.49a2.56,2.56,0,0,0-1.92-.88,1.56,1.56,0,0,0-1.33.72,3.76,3.76,0,0,0-.5,2.14,3.57,3.57,0,0,0,.48,2,1.46,1.46,0,0,0,1.3.7A2.45,2.45,0,0,0,184.11,18Z"/><path class="cls-5" d="M192.59,13.78v6.28H191.3V13.78h-1.08v-1h1.08v-.65q0-2.31,2-2.31a4.74,4.74,0,0,1,1,.08V11a5.14,5.14,0,0,0-.78-.07.88.88,0,0,0-.71.27,1.42,1.42,0,0,0-.23.92v.63H194v1Z"/><path class="cls-5" d="M199.61,19.31a3.61,3.61,0,0,1-2.55.92,2.63,2.63,0,0,1-1.79-.59,1.87,1.87,0,0,1-.71-1.51q0-2.56,4.42-2.56h.63a6,6,0,0,0-.08-1.14,1,1,0,0,0-.47-.59,2.31,2.31,0,0,0-1.2-.23c-1.16,0-1.75.41-1.79,1.23h-1.29q.14-2.25,3.15-2.25a3.77,3.77,0,0,1,2.19.56,2.54,2.54,0,0,1,.78,2.19v4.72h-1.29Zm0-1.17V16.52h-.89c-1.88,0-2.82.52-2.82,1.54a1,1,0,0,0,.41.85,1.88,1.88,0,0,0,1.12.3,2.75,2.75,0,0,0,1.24-.29A2.41,2.41,0,0,0,199.61,18.14Z"/><path class="cls-5" d="M205.78,20.23a3.23,3.23,0,0,1-2.49-1,4,4,0,0,1-.93-2.82,4,4,0,0,1,.93-2.82,3.59,3.59,0,0,1,4.49-.39,2.46,2.46,0,0,1,.94,1.75h-1.33a1.24,1.24,0,0,0-.49-1,1.84,1.84,0,0,0-1.12-.34,1.86,1.86,0,0,0-1.51.7,3.29,3.29,0,0,0-.58,2.1,3.29,3.29,0,0,0,.58,2.1,1.86,1.86,0,0,0,1.51.7,1.84,1.84,0,0,0,1.12-.34,1.23,1.23,0,0,0,.49-1h1.33a2.48,2.48,0,0,1-.94,1.75A3.25,3.25,0,0,1,205.78,20.23Z"/><path class="cls-5" d="M212.7,20.07a4.45,4.45,0,0,1-.93.09,1.93,1.93,0,0,1-1.17-.29,1.17,1.17,0,0,1-.46-.73,6.54,6.54,0,0,1-.09-1.22V13.78h-.9v-1h.9V10.94h1.3v1.82h1.18v1h-1.18V18a1.59,1.59,0,0,0,.18,1,.66.66,0,0,0,.52.2,3.43,3.43,0,0,0,.65-.05Z"/><path class="cls-5" d="M216.74,12.59a3.26,3.26,0,0,1,2.49,1,4,4,0,0,1,.94,2.82,4,4,0,0,1-.94,2.82,3.6,3.6,0,0,1-5,0,4,4,0,0,1-.93-2.82,4,4,0,0,1,.93-2.82A3.26,3.26,0,0,1,216.74,12.59Zm0,6.62a1.86,1.86,0,0,0,1.51-.7,3.29,3.29,0,0,0,.57-2.1,3.29,3.29,0,0,0-.57-2.1,2,2,0,0,0-3,0,3.29,3.29,0,0,0-.58,2.1,3.29,3.29,0,0,0,.58,2.1A1.86,1.86,0,0,0,216.74,19.21Z"/><path class="cls-5" d="M225.41,13.94a3.19,3.19,0,0,0-.79-.08,2,2,0,0,0-1.7,1v5.16h-1.3v-7.3h1.3v1a2.32,2.32,0,0,1,1.9-1.19,3.19,3.19,0,0,1,.59.06Z"/><path class="cls-5" d="M234.38,20.06h-1.29V12.13a4.48,4.48,0,0,1-2.43.52v-1c1.58,0,2.49-.61,2.72-1.83h1Z"/><path class="cls-5" d="M240.85,9.8q3.28,0,3.28,5.23t-3.28,5.2q-3.28,0-3.29-5.2T240.85,9.8Zm0,9.41a1.56,1.56,0,0,0,1.45-.92,7.53,7.53,0,0,0,.49-3.26,7.66,7.66,0,0,0-.49-3.28,1.6,1.6,0,0,0-2.9,0,7.66,7.66,0,0,0-.49,3.28,7.53,7.53,0,0,0,.49,3.26A1.55,1.55,0,0,0,240.85,19.21Z"/><path class="cls-5" d="M294.33,89.94a4.63,4.63,0,0,1-3.19-1A3.38,3.38,0,0,1,290,86.52h1.29a2.08,2.08,0,0,0,.94,1.67,3.65,3.65,0,0,0,2,.54,3.14,3.14,0,0,0,1.8-.46,1.43,1.43,0,0,0,.69-1.25,1.27,1.27,0,0,0-.71-1.21,10.52,10.52,0,0,0-2.44-.75,5.51,5.51,0,0,1-2.48-1,2.18,2.18,0,0,1-.76-1.74,2.46,2.46,0,0,1,1-2,4.1,4.1,0,0,1,2.61-.78,4.44,4.44,0,0,1,2.75.79,2.77,2.77,0,0,1,1.11,2.23h-1.3c-.14-1.22-1-1.83-2.51-1.83a3,3,0,0,0-1.72.42,1.3,1.3,0,0,0-.62,1.12,1.06,1.06,0,0,0,.5,1,6.29,6.29,0,0,0,1.83.61,18.54,18.54,0,0,1,2.14.58,3.49,3.49,0,0,1,1.35.9,2.31,2.31,0,0,1,.57,1.64,2.72,2.72,0,0,1-1,2.16A4.1,4.1,0,0,1,294.33,89.94Z"/><path class="cls-5" d="M302.71,89.94a3.23,3.23,0,0,1-2.48-1,4.69,4.69,0,0,1,0-5.63,3.6,3.6,0,0,1,4.48-.4,2.49,2.49,0,0,1,1,1.75h-1.34a1.25,1.25,0,0,0-.49-1,2,2,0,0,0-2.62.37,4.07,4.07,0,0,0,0,4.19,2,2,0,0,0,2.62.36,1.23,1.23,0,0,0,.49-1h1.34a2.47,2.47,0,0,1-1,1.75A3.24,3.24,0,0,1,302.71,89.94Z"/><path class="cls-5" d="M311.42,89a3.57,3.57,0,0,1-2.55.93,2.7,2.7,0,0,1-1.79-.59,1.88,1.88,0,0,1-.7-1.52q0-2.56,4.41-2.56h.63a6.07,6.07,0,0,0-.08-1.14,1,1,0,0,0-.46-.59,2.46,2.46,0,0,0-1.21-.23c-1.15,0-1.75.41-1.78,1.24h-1.3q.15-2.25,3.15-2.25a3.66,3.66,0,0,1,2.19.56,2.53,2.53,0,0,1,.79,2.18v4.72h-1.3Zm0-1.17V86.23h-.89q-2.82,0-2.82,1.53a1,1,0,0,0,.42.86,1.83,1.83,0,0,0,1.11.3,2.85,2.85,0,0,0,1.24-.29A2.36,2.36,0,0,0,311.42,87.84Z"/><path class="cls-5" d="M315.94,89.76h-1.3V79.68h1.3Z"/><path class="cls-5" d="M319.15,81.08h-1.3v-1.4h1.3Zm0,8.68h-1.3v-7.3h1.3Z"/><path class="cls-5" d="M322.36,83.39a2.86,2.86,0,0,1,2.18-1.09c1.65,0,2.47.9,2.47,2.69v4.77h-1.3V85a2.05,2.05,0,0,0-.32-1.28,1.27,1.27,0,0,0-1.05-.39,2.68,2.68,0,0,0-2,1.17v5.22h-1.3v-7.3h1.3Z"/><path class="cls-5" d="M334.81,89.2q0,3.52-3.17,3.52a3.55,3.55,0,0,1-2.18-.6,1.93,1.93,0,0,1-.79-1.61H330c0,.8.54,1.2,1.61,1.2a1.93,1.93,0,0,0,1.41-.5,2.83,2.83,0,0,0,.49-2v-.36a2.75,2.75,0,0,1-4.3,0,4.42,4.42,0,0,1-.78-2.75,4.29,4.29,0,0,1,.87-2.83,2.79,2.79,0,0,1,2.21-1,2.89,2.89,0,0,1,2,.73v-.57h1.29Zm-1.29-1.53V84.2a2.59,2.59,0,0,0-1.92-.89,1.55,1.55,0,0,0-1.33.72,3.78,3.78,0,0,0-.5,2.14,3.72,3.72,0,0,0,.47,2,1.51,1.51,0,0,0,1.31.7A2.48,2.48,0,0,0,333.52,87.67Z"/><path class="cls-5" d="M342,83.48v6.28h-1.3V83.48h-1.07v-1h1.07v-.64c0-1.54.68-2.31,2.05-2.31a4.17,4.17,0,0,1,1,.08v1.13a4.15,4.15,0,0,0-.79-.07.9.9,0,0,0-.7.26,1.4,1.4,0,0,0-.23.92v.63h1.38v1Z"/><path class="cls-5" d="M349,89a3.57,3.57,0,0,1-2.55.93,2.72,2.72,0,0,1-1.79-.59,1.91,1.91,0,0,1-.7-1.52q0-2.56,4.41-2.56H349a5.32,5.32,0,0,0-.08-1.14,1,1,0,0,0-.46-.59,2.42,2.42,0,0,0-1.2-.23c-1.16,0-1.76.41-1.79,1.24h-1.3c.1-1.5,1.15-2.25,3.16-2.25a3.65,3.65,0,0,1,2.18.56,2.51,2.51,0,0,1,.79,2.18v4.72H349Zm0-1.17V86.23h-.88q-2.82,0-2.82,1.53a1,1,0,0,0,.41.86,1.85,1.85,0,0,0,1.11.3,2.85,2.85,0,0,0,1.24-.29A2.36,2.36,0,0,0,349,87.84Z"/><path class="cls-5" d="M355.19,89.94a3.23,3.23,0,0,1-2.49-1,4.73,4.73,0,0,1,0-5.63,3.6,3.6,0,0,1,4.48-.4,2.49,2.49,0,0,1,.95,1.75h-1.34a1.22,1.22,0,0,0-.49-1,1.81,1.81,0,0,0-1.11-.34,1.83,1.83,0,0,0-1.51.71,4.07,4.07,0,0,0,0,4.19,1.86,1.86,0,0,0,1.51.71,1.81,1.81,0,0,0,1.11-.35,1.2,1.2,0,0,0,.49-1h1.34a2.47,2.47,0,0,1-.95,1.75A3.23,3.23,0,0,1,355.19,89.94Z"/><path class="cls-5" d="M362.11,89.78a5.46,5.46,0,0,1-.93.08,1.93,1.93,0,0,1-1.17-.29,1.17,1.17,0,0,1-.46-.73,6.46,6.46,0,0,1-.09-1.22V83.48h-.9v-1h.9V80.65h1.29v1.81h1.18v1h-1.18v4.21a1.56,1.56,0,0,0,.19,1,.7.7,0,0,0,.52.2,3.49,3.49,0,0,0,.65-.06Z"/><path class="cls-5" d="M366.15,82.3a3.23,3.23,0,0,1,2.49,1,4.73,4.73,0,0,1,0,5.63,3.57,3.57,0,0,1-5,0,4.73,4.73,0,0,1,0-5.63A3.23,3.23,0,0,1,366.15,82.3Zm0,6.62a1.85,1.85,0,0,0,1.5-.71,4.07,4.07,0,0,0,0-4.19,2,2,0,0,0-3,0,4.07,4.07,0,0,0,0,4.19A1.86,1.86,0,0,0,366.15,88.92Z"/><path class="cls-5" d="M374.81,83.65a2.63,2.63,0,0,0-.79-.09,2.06,2.06,0,0,0-1.7,1v5.16H371v-7.3h1.3v1a2.32,2.32,0,0,1,1.9-1.18,4.15,4.15,0,0,1,.59,0Z"/><path class="cls-5" d="M383.79,89.76h-1.3V81.83a4.43,4.43,0,0,1-2.43.52v-1c1.59,0,2.49-.61,2.73-1.83h1Z"/><path class="cls-5" d="M390.25,79.51q3.28,0,3.29,5.22t-3.29,5.21q-3.28,0-3.28-5.21T390.25,79.51Zm0,9.41A1.57,1.57,0,0,0,391.7,88a7.57,7.57,0,0,0,.5-3.27,7.57,7.57,0,0,0-.5-3.27,1.58,1.58,0,0,0-2.89,0,7.57,7.57,0,0,0-.5,3.27,7.57,7.57,0,0,0,.5,3.27A1.57,1.57,0,0,0,390.25,88.92Z"/><path class="cls-5" d="M5.51,77.34H4.21V69.41a4.51,4.51,0,0,1-2.42.52v-1c1.58,0,2.49-.61,2.72-1.83h1Z"/><path class="cls-5" d="M15.24,74.93H13.88v2.41h-1.3V74.93H8.27V73.79l4.59-6.67h1v6.67h1.36Zm-2.66-1.14V69.16L9.49,73.79Z"/><path class="cls-5" d="M19.81,67.08q3.29,0,3.29,5.23t-3.29,5.2q-3.28,0-3.28-5.2T19.81,67.08Zm0,9.41a1.57,1.57,0,0,0,1.45-.92,7.49,7.49,0,0,0,.5-3.26,7.63,7.63,0,0,0-.5-3.28,1.59,1.59,0,0,0-2.89,0,7.63,7.63,0,0,0-.5,3.28,7.49,7.49,0,0,0,.5,3.26A1.57,1.57,0,0,0,19.81,76.49Z"/><path class="cls-5" d="M5.51,112.94H4.21V105a4.42,4.42,0,0,1-2.42.52v-1c1.58,0,2.49-.61,2.72-1.83h1Z"/><path class="cls-5" d="M15.17,112.94H8.49a3,3,0,0,1,.58-1.76,10.62,10.62,0,0,1,2.09-2.07,13.47,13.47,0,0,0,2.09-2,2.68,2.68,0,0,0,.56-1.66,1.78,1.78,0,0,0-.48-1.31A1.83,1.83,0,0,0,12,103.7a1.88,1.88,0,0,0-1.3.48,2,2,0,0,0-.6,1.42H8.74a3.09,3.09,0,0,1,1-2.12,3.25,3.25,0,0,1,2.28-.8,3.17,3.17,0,0,1,2.33.81,2.77,2.77,0,0,1,.82,2,3.2,3.2,0,0,1-.61,1.94,14.84,14.84,0,0,1-2.4,2.34c-1.2,1-1.81,1.65-1.84,1.94h4.87Z"/><path class="cls-5" d="M19.81,102.68c2.19,0,3.29,1.75,3.29,5.23s-1.1,5.2-3.29,5.2-3.28-1.73-3.28-5.2S17.62,102.68,19.81,102.68Zm0,9.41a1.55,1.55,0,0,0,1.45-.92,7.49,7.49,0,0,0,.5-3.26,7.66,7.66,0,0,0-.5-3.28,1.59,1.59,0,0,0-2.89,0,7.66,7.66,0,0,0-.5,3.28,7.49,7.49,0,0,0,.5,3.26A1.55,1.55,0,0,0,19.81,112.09Z"/><path class="cls-5" d="M5.51,145.71H4.21v-7.93a4.51,4.51,0,0,1-2.42.52v-1c1.58,0,2.49-.61,2.72-1.83h1Z"/><path class="cls-5" d="M12,135.45q3.29,0,3.28,5.23T12,145.88q-3.29,0-3.29-5.2T12,135.45Zm0,9.41a1.58,1.58,0,0,0,1.45-.92,7.53,7.53,0,0,0,.49-3.26,7.66,7.66,0,0,0-.49-3.28,1.6,1.6,0,0,0-2.9,0,7.66,7.66,0,0,0-.49,3.28,7.53,7.53,0,0,0,.49,3.26A1.57,1.57,0,0,0,12,144.86Z"/><path class="cls-5" d="M19.81,135.45q3.29,0,3.29,5.23t-3.29,5.2q-3.28,0-3.28-5.2T19.81,135.45Zm0,9.41a1.57,1.57,0,0,0,1.45-.92,7.49,7.49,0,0,0,.5-3.26,7.63,7.63,0,0,0-.5-3.28,1.59,1.59,0,0,0-2.89,0,7.63,7.63,0,0,0-.5,3.28,7.49,7.49,0,0,0,.5,3.26A1.57,1.57,0,0,0,19.81,144.86Z"/><path class="cls-5" d="M5.37,174.34c1.4.64,2.1,1.52,2.1,2.62A2.6,2.6,0,0,1,6.55,179a3.6,3.6,0,0,1-2.41.79A3.62,3.62,0,0,1,1.73,179,2.59,2.59,0,0,1,.82,177c0-1.1.7-2,2.09-2.62a2.87,2.87,0,0,1-1.7-2.47A2.26,2.26,0,0,1,2,170.08a3.1,3.1,0,0,1,2.12-.7,3.13,3.13,0,0,1,2.13.7,2.28,2.28,0,0,1,.8,1.79A2.87,2.87,0,0,1,5.37,174.34ZM6.13,177a1.54,1.54,0,0,0-.48-1.13,5.2,5.2,0,0,0-1.51-.93,5.34,5.34,0,0,0-1.51.93A1.56,1.56,0,0,0,2.16,177a1.72,1.72,0,0,0,.54,1.34,2,2,0,0,0,1.44.49,2,2,0,0,0,1.44-.49A1.69,1.69,0,0,0,6.13,177Zm-2-3.16c1.06-.48,1.6-1.12,1.6-1.93a1.41,1.41,0,0,0-.43-1.08,1.66,1.66,0,0,0-1.17-.4,1.67,1.67,0,0,0-1.17.4,1.4,1.4,0,0,0-.42,1.08C2.55,172.68,3.08,173.32,4.14,173.8Z"/><path class="cls-5" d="M12,169.38q3.29,0,3.28,5.23c0,3.46-1.09,5.2-3.28,5.2s-3.29-1.74-3.29-5.2S9.79,169.38,12,169.38Zm0,9.41a1.58,1.58,0,0,0,1.45-.92,7.56,7.56,0,0,0,.49-3.26,7.63,7.63,0,0,0-.49-3.28,1.59,1.59,0,0,0-2.9,0,11.16,11.16,0,0,0,0,6.54A1.57,1.57,0,0,0,12,178.79Z"/><path class="cls-5" d="M2.17,207.92a3,3,0,0,1,2.29-1.09,2.83,2.83,0,0,1,2.14.91,3.27,3.27,0,0,1,.87,2.34,3.68,3.68,0,0,1-.86,2.45,2.88,2.88,0,0,1-2.3,1,2.94,2.94,0,0,1-2.54-1.26,6.12,6.12,0,0,1-.91-3.63q0-5.53,3.56-5.54a2.91,2.91,0,0,1,1.92.64,2.8,2.8,0,0,1,1,1.87H6a1.47,1.47,0,0,0-1.61-1.49,1.71,1.71,0,0,0-1.5,1A6.43,6.43,0,0,0,2.17,207.92Zm0,1a5.33,5.33,0,0,0,.6,2.67,1.72,1.72,0,0,0,1.52.92,1.61,1.61,0,0,0,1.35-.67,2.77,2.77,0,0,0,.5-1.68,2.64,2.64,0,0,0-.51-1.67,1.66,1.66,0,0,0-1.38-.65A2.9,2.9,0,0,0,2.16,208.92Z"/><path class="cls-5" d="M12,203.1c2.19,0,3.28,1.75,3.28,5.23s-1.09,5.2-3.28,5.2-3.29-1.73-3.29-5.2S9.79,203.1,12,203.1Zm0,9.41a1.56,1.56,0,0,0,1.45-.92,7.53,7.53,0,0,0,.49-3.26,7.69,7.69,0,0,0-.49-3.28,1.6,1.6,0,0,0-2.9,0,7.69,7.69,0,0,0-.49,3.28,7.53,7.53,0,0,0,.49,3.26A1.55,1.55,0,0,0,12,212.51Z"/><path class="cls-5" d="M7.41,243.93H6v2.41H4.74v-2.41H.44v-1.14L5,236.12H6v6.67H7.41Zm-2.67-1.14v-4.63l-3.09,4.63Z"/><path class="cls-5" d="M12,236.08q3.29,0,3.28,5.23T12,246.51q-3.29,0-3.29-5.2T12,236.08Zm0,9.41a1.58,1.58,0,0,0,1.45-.92,7.53,7.53,0,0,0,.49-3.26,7.66,7.66,0,0,0-.49-3.28,1.6,1.6,0,0,0-2.9,0,7.66,7.66,0,0,0-.49,3.28,7.53,7.53,0,0,0,.49,3.26A1.57,1.57,0,0,0,12,245.49Z"/><path class="cls-5" d="M7.34,280.83H.66a3.1,3.1,0,0,1,.57-1.77A11.23,11.23,0,0,1,3.32,277a13,13,0,0,0,2.09-2A2.65,2.65,0,0,0,6,273.38a1.75,1.75,0,0,0-.49-1.32,1.86,1.86,0,0,0-1.35-.47,1.84,1.84,0,0,0-1.29.48,2,2,0,0,0-.61,1.42H.9a3.1,3.1,0,0,1,1-2.13,3.25,3.25,0,0,1,2.29-.79,3.15,3.15,0,0,1,2.32.81,2.71,2.71,0,0,1,.82,2,3.29,3.29,0,0,1-.6,2,15.47,15.47,0,0,1-2.41,2.34c-1.2,1-1.81,1.65-1.83,1.94H7.34Z"/><path class="cls-5" d="M12,270.57q3.29,0,3.28,5.23c0,3.46-1.09,5.2-3.28,5.2s-3.29-1.74-3.29-5.2S9.79,270.57,12,270.57ZM12,280a1.58,1.58,0,0,0,1.45-.92,7.56,7.56,0,0,0,.49-3.26,7.63,7.63,0,0,0-.49-3.28,1.6,1.6,0,0,0-2.9,0,11.16,11.16,0,0,0,0,6.54A1.57,1.57,0,0,0,12,280Z"/><path class="cls-5" d="M4.14,302.9c2.19,0,3.29,1.75,3.29,5.23s-1.1,5.2-3.29,5.2S.86,311.6.86,308.13,2,302.9,4.14,302.9Zm0,9.42a1.56,1.56,0,0,0,1.45-.93,7.49,7.49,0,0,0,.5-3.26,7.66,7.66,0,0,0-.5-3.28,1.6,1.6,0,0,0-2.9,0,7.69,7.69,0,0,0-.49,3.28,7.53,7.53,0,0,0,.49,3.26A1.57,1.57,0,0,0,4.14,312.32Z"/><rect class="cls-6" x="80.89" y="39.45" width="62.36" height="270.21"/><rect class="cls-7" x="228.79" y="140.98" width="62.36" height="168.68"/><rect class="cls-8" x="377.88" y="218.52" width="62.36" height="91.14"/></svg>