<svg id="Layer_1" data-name="Layer 1" xmlns="http://www.w3.org/2000/svg" width="185.97" height="186.22" viewBox="0 0 185.97 186.22"><defs><style>.cls-1{fill:none;stroke:#000;stroke-miterlimit:10;stroke-width:8px;}</style></defs><path d="M93,101.27a1.41,1.41,0,0,1-.49-.09c-1-.37-24.69-9.24-24.69-29.59h0A15.21,15.21,0,0,1,83,56.41a15,15,0,0,1,10,3.76,15,15,0,0,1,10-3.76,15.21,15.21,0,0,1,15.2,15.18c0,20.35-23.68,29.22-24.69,29.59h0a1.43,1.43,0,0,1-.5.09ZM83.09,59.34a12.31,12.31,0,0,0-12.3,12.29c0,16.8,18.95,25.32,22.29,26.67,3.34-1.35,22.3-9.87,22.3-26.67a12.31,12.31,0,0,0-12.31-12.29,12.17,12.17,0,0,0-8.93,3.88,1.45,1.45,0,0,1-1.06.45,1.43,1.43,0,0,1-1-.45,12.14,12.14,0,0,0-8.94-3.92Z"/><path d="M69.07,147.35H69a1.43,1.43,0,0,1-1.37-1.44l.56-11.66L53.41,119a1.36,1.36,0,0,1-.27-.39L43,96.66h0a1.51,1.51,0,0,1-.15-.58l-.49-21.27A4.86,4.86,0,0,1,52,73.94l3,16.32A1.48,1.48,0,0,1,53.86,92a1.47,1.47,0,0,1-1.7-1.19l-3-16.35a2,2,0,0,0-2.08-1.68,2,2,0,0,0-1.84,2l.45,21,10,21.42,15,15.48a1.34,1.34,0,0,1,.41,1.07L70.5,146a1.44,1.44,0,0,1-1.43,1.37Z"/><path d="M86.56,147.42A1.47,1.47,0,0,1,85.09,146V119.86l-2.79-4.28a41.52,41.52,0,0,0-16.68-14.71,1.58,1.58,0,0,1-.44-.34l-8.6-9.36A2.13,2.13,0,0,0,53.46,94C64.87,107.4,70.77,115.71,71,118.7a1.47,1.47,0,1,1-2.94.22c-.13-1.64-4.6-8.64-16.84-23h0a5.07,5.07,0,0,1,7.6-6.72l8.36,9.22A44.52,44.52,0,0,1,84.81,114l3,4.65h0a1.58,1.58,0,0,1,.23.81v26.47a1.44,1.44,0,0,1-.44,1.07,1.51,1.51,0,0,1-1.09.42Z"/><path d="M116.9,146.91a1.45,1.45,0,0,1-1.45-1.45l-.61-12.28a1.34,1.34,0,0,1,.41-1.07l15.05-15.42,9.95-21.41.44-21a2,2,0,0,0-3.9-.36l-3,16.38a1.47,1.47,0,0,1-1.71,1.18,1.45,1.45,0,0,1-1.18-1.7l3.06-16.35a4.86,4.86,0,0,1,9.65.91l-.45,21.26a1.42,1.42,0,0,1-.15.58l-10.12,21.92h0a1.36,1.36,0,0,1-.27.39l-14.82,15.21.56,11.65a1.45,1.45,0,0,1-1.37,1.45Z"/><path d="M99.62,146.91a1.49,1.49,0,0,1-1.53-1.45v-26a1.5,1.5,0,0,1,.25-.79l3.15-4.57h0a45.4,45.4,0,0,1,18.22-15.31l8.71-9h0a5.38,5.38,0,0,1,3.15-1.56,5.52,5.52,0,0,1,3.47.69,5,5,0,0,1,2.44,3.47,4.83,4.83,0,0,1-1.19,4c-12.67,14.09-17.3,21-17.44,22.58h0a1.5,1.5,0,0,1-1.63,1.34,1.47,1.47,0,0,1-1.41-1.56c.22-2.89,6.33-11.1,18.15-24.24a2,2,0,0,0-.25-2.89,2.28,2.28,0,0,0-3.05.11l-8.94,9.17a1.85,1.85,0,0,1-.46.33A42.32,42.32,0,0,0,104,115.67l-2.9,4.21v25.59a1.47,1.47,0,0,1-1.47,1.44Z"/><path d="M18,39.56l4.58,3.76L26.87,38l-4.59-3.75,1.17-1.43,11,9-1.17,1.43L28.1,39l-4.34,5.3,5.14,4.2L27.74,50,16.79,41Z"/><path d="M40.08,36.5l-1-.84-.05,0a3.79,3.79,0,0,1-1.24,3.23,2.91,2.91,0,0,1-4.27,0c-1.67-1.8-1-4.28,1.9-6.93l-.14-.16A2.1,2.1,0,0,0,32,31.67,5.13,5.13,0,0,0,30.58,34l-1.13-.61a6.25,6.25,0,0,1,1.83-2.93c2.27-2.12,4.27-1.08,5.66.41l2.59,2.79a15,15,0,0,0,1.78,1.67Zm-3.73-3.61c-1.51,1.34-2.94,3.16-1.6,4.6a1.64,1.64,0,0,0,2.48.11,2.53,2.53,0,0,0,.64-2.92,1.86,1.86,0,0,0-.32-.5Z"/><path d="M38.48,28.07c-.62-.85-1.14-1.54-1.68-2.19l1.33-.95,1.07,1.3,0,0a3.76,3.76,0,0,1,1.61-3.52c1.14-.82,3.41-1.41,5.44,1.41L49.83,29l-1.5,1.08-3.42-4.76c-1-1.32-2.25-2.08-3.67-1.06a2.62,2.62,0,0,0-.9,3,2.41,2.41,0,0,0,.4.78l3.57,5-1.5,1.07Z"/><path d="M52.31,10.65,58.09,21.5c.42.79.92,1.69,1.31,2.27l-1.47.78L57,23l0,0a3.78,3.78,0,0,1-2.12,3.39c-2.17,1.15-4.81.2-6.27-2.52-1.6-3-.73-5.8,1.46-7a3.37,3.37,0,0,1,3.44-.07l0,0-2.85-5.36Zm2.55,8.71a3.91,3.91,0,0,0-.44-.65,2.72,2.72,0,0,0-3.36-.63c-1.69.9-1.9,2.91-.85,4.9,1,1.81,2.66,2.84,4.42,1.9A2.78,2.78,0,0,0,56,21.66a3.49,3.49,0,0,0-.3-.74Z"/><path d="M68,20a6.78,6.78,0,0,1-2.52,1.59,4.82,4.82,0,0,1-6.58-3,5.16,5.16,0,0,1,3.16-7,6.12,6.12,0,0,1,2.58-.43l.12,1.48a4.43,4.43,0,0,0-2.18.32,3.53,3.53,0,0,0-2,4.88,3.49,3.49,0,0,0,4.66,2.28,5.39,5.39,0,0,0,1.94-1.28Z"/><path d="M67.7,13.26c-.33-1.15-.62-2.13-.94-3l1.56-.43.6,1.9.08,0a3,3,0,0,1,2.11-2.9,1.69,1.69,0,0,1,.52-.08l.47,1.68a2.62,2.62,0,0,0-.62.11,2.58,2.58,0,0,0-1.75,2.95,5.09,5.09,0,0,0,.15.85l1.46,5.21-1.76.5Z"/><path d="M81,17.41l-.36-1.24-.07,0a3.8,3.8,0,0,1-2.79,2,2.9,2.9,0,0,1-3.57-2.34c-.43-2.41,1.49-4.12,5.36-4.78l0-.21A2.09,2.09,0,0,0,76.82,9a5,5,0,0,0-2.48,1.2l-.62-1.12a6.19,6.19,0,0,1,3.13-1.47C79.91,7,81,9,81.38,11L82,14.75a13.44,13.44,0,0,0,.59,2.37ZM79.8,12.35c-2,.31-4.18,1.06-3.84,3a1.64,1.64,0,0,0,2,1.43,2.54,2.54,0,0,0,2.12-2.1,2,2,0,0,0,0-.6Z"/><path d="M85,16.93,84.25,8.2l-1.42.11-.11-1.4,1.42-.12,0-.48A4.78,4.78,0,0,1,85,2.68a3.53,3.53,0,0,1,2.39-1.15A4.32,4.32,0,0,1,89,1.7l-.14,1.44A2.69,2.69,0,0,0,87.64,3c-1.57.13-1.85,1.54-1.72,3.09l0,.54,2.45-.2.12,1.41-2.45.2.72,8.73Z"/><path d="M92.68,3.46l0,2.92,2.64,0,0,1.41-2.64,0,.09,5.48c0,1.26.38,2,1.41,2a4,4,0,0,0,1.07-.15l.11,1.39a4.62,4.62,0,0,1-1.64.27,2.51,2.51,0,0,1-2-.74A3.74,3.74,0,0,1,91,13.36l-.09-5.55-1.57,0,0-1.41,1.58,0,0-2.44Z"/><path d="M98.19,11.91a3.26,3.26,0,0,0,3.15,3.84,6.68,6.68,0,0,0,2.85-.27l.19,1.35a8.41,8.41,0,0,1-3.42.32c-3.12-.29-4.79-2.52-4.51-5.57s2.31-5.29,5.25-5c3.31.3,3.92,3.29,3.74,5.15a5.68,5.68,0,0,1-.14.85Zm5.52-.81c.13-1.17-.2-3-2.27-3.23-1.86-.17-2.84,1.47-3.1,2.73Z"/><path d="M118.11,4.89l-2.68,12c-.2.88-.41,1.89-.5,2.58l-1.61-.37.3-1.74h0a3.75,3.75,0,0,1-3.82,1.18c-2.4-.53-3.79-3-3.11-6,.72-3.3,3.22-4.87,5.64-4.33a3.39,3.39,0,0,1,2.65,2.19h0l1.33-5.92Zm-3.74,8.26a3.25,3.25,0,0,0,.09-.77,2.74,2.74,0,0,0-2.14-2.68c-1.86-.41-3.34,1-3.83,3.17-.45,2,.16,3.89,2.11,4.32a2.78,2.78,0,0,0,3.13-1.55,3.57,3.57,0,0,0,.25-.76Z"/><path d="M125.59,12.28l-.93,5.25c-.21,1.16-.4,2.22-.67,3.26l.06,0c.64-.83,1.4-1.69,2.16-2.54l3.67-4,1.42.65-.69,5.27c-.17,1.27-.35,2.36-.56,3.39l0,0a32.25,32.25,0,0,1,2.08-2.67l3.45-4,1.66.77-7.22,7.87-1.52-.7.61-5.06a34.16,34.16,0,0,1,.57-3.41l0,0A30.34,30.34,0,0,1,127.45,19L124,22.71l-1.53-.7,1.45-10.52Z"/><path d="M133.77,27.7,139.06,19l1.57,1-5.28,8.68Zm8.53-10a1.1,1.1,0,0,1-1.6.36,1.11,1.11,0,0,1-.36-1.55,1.13,1.13,0,0,1,1.59-.38A1.09,1.09,0,0,1,142.3,17.65Z"/><path d="M146.9,20.65,145.21,23l2.16,1.53-.81,1.14-2.16-1.52-3.17,4.47c-.72,1-.84,1.82,0,2.42a4.33,4.33,0,0,0,.94.51l-.73,1.18A4.47,4.47,0,0,1,140,32a2.58,2.58,0,0,1-1.18-1.79,3.74,3.74,0,0,1,.94-2.57l3.21-4.53-1.29-.91.81-1.15,1.29.91,1.41-2Z"/><path d="M152.46,22.45l1.39,1.22-4.2,4.76,0,0a3.43,3.43,0,0,1,1.86-.1,3.8,3.8,0,0,1,1.76.85c1,.91,2.11,3-.21,5.61l-4,4.54-1.38-1.22,3.86-4.38c1.08-1.23,1.54-2.67.23-3.83a2.66,2.66,0,0,0-3.08-.25,2.22,2.22,0,0,0-.68.58l-4,4.6-1.39-1.22Z"/><path d="M158.7,39.6c1-.8,1.83-1.48,2.56-2.11l1,1.3L161,39.93l0,0a4,4,0,0,1,3.78,1.63c1.51,1.93,1,4.67-1.42,6.57-2.88,2.25-5.67,1.61-7.14-.27a3.59,3.59,0,0,1-.68-3.45l0,0-4.35,3.41L150,46.38Zm-1,3.11a3.4,3.4,0,0,0-.54.53,2.85,2.85,0,0,0,0,3.51c1.21,1.54,3.16,1.45,5,0,1.6-1.26,2.32-3.18,1.11-4.72a2.93,2.93,0,0,0-3.52-.78,2.89,2.89,0,0,0-.67.36Z"/><path d="M162.84,57.48l1-.78,0-.05a3.77,3.77,0,0,1-2.89-1.9,2.89,2.89,0,0,1,.91-4.16c2.12-1.26,4.39-.07,6.38,3.32l.18-.11a2.1,2.1,0,0,0,.84-3.19,5.09,5.09,0,0,0-2-1.89l.83-1a6.19,6.19,0,0,1,2.48,2.41c1.59,2.67.16,4.4-1.59,5.44l-3.27,1.95a14.3,14.3,0,0,0-2,1.39Zm4.32-2.88c-1-1.76-2.47-3.54-4.17-2.53a1.63,1.63,0,0,0-.62,2.4,2.53,2.53,0,0,0,2.72,1.24,1.74,1.74,0,0,0,.55-.21Z"/><path d="M166.22,59.77a5,5,0,0,0,.35,2.52c.56,1.22,1.44,1.51,2.2,1.16s1-1,.91-2.5c-.17-1.93.39-3.13,1.49-3.64,1.49-.69,3.27,0,4.18,1.94a5.07,5.07,0,0,1,.47,2.54l-1.41.14a4,4,0,0,0-.34-2.14,1.49,1.49,0,0,0-2-1c-.76.36-.85,1.07-.76,2.48.13,1.88-.3,3.07-1.67,3.71-1.62.74-3.35,0-4.36-2.19a5.87,5.87,0,0,1-.56-2.88Z"/><path d="M169.4,66.93a4.75,4.75,0,0,0,.11,2.54c.44,1.27,1.28,1.64,2.07,1.37s1.12-1,1.15-2.4c0-1.94.68-3.09,1.83-3.49,1.55-.53,3.25.28,4,2.34a5.08,5.08,0,0,1,.23,2.57h-1.42a4,4,0,0,0-.13-2.16c-.36-1-1.16-1.4-1.87-1.15s-1,1-1,2.39c-.06,1.89-.59,3-2,3.53-1.69.58-3.33-.31-4.13-2.59a5.89,5.89,0,0,1-.28-2.93Z"/><path d="M170.09,75.16l9.83-2.59.47,1.79L170.56,77Zm13.12-1.33a1.14,1.14,0,0,1-.59-2.21,1.13,1.13,0,0,1,1.42.82A1.1,1.1,0,0,1,183.21,73.83Z"/><path d="M177.81,87.5c-3.71.61-5.75-1.69-6.15-4.12-.45-2.71,1.2-5.13,4.37-5.65,3.36-.55,5.69,1.32,6.14,4.1S180.87,87,177.81,87.5Zm-1.41-7.94c-2.2.36-3.65,1.9-3.36,3.68s2.14,2.78,4.4,2.41c1.7-.28,3.71-1.48,3.36-3.64S178.3,79.25,176.4,79.56Z"/><path d="M180.21,89.52c1,0,1.91-.08,2.75-.16L183,91l-1.68.16v0a3.74,3.74,0,0,1,2,3.3c0,1.41-.73,3.62-4.22,3.73l-6.06.18L173,96.55l5.86-.18c1.63-.05,3-.7,2.93-2.44a2.63,2.63,0,0,0-2-2.42,2.54,2.54,0,0,0-.86-.1l-6.11.19-.06-1.85Z"/><path class="cls-1" d="M18,53.33a85.25,85.25,0,1,0,158.16,53.25"/></svg>