<svg id="Layer_1" data-name="Layer 1" xmlns="http://www.w3.org/2000/svg" width="190" height="190" viewBox="0 0 190 190"><defs><style>.cls-1{fill:none;stroke:#000;stroke-miterlimit:10;stroke-width:8px;}.cls-2{fill:#4f4f4f;}</style></defs><path d="M4.88,71.48l.58-1.73,12,4,1.93-5.73,1.45.49L18.29,76Z"/><path d="M8.69,61.4a17.77,17.77,0,0,1,1.19-3.13,5.84,5.84,0,0,1,2.61-3.06,3,3,0,0,1,2.76,0A3.34,3.34,0,0,1,17,58.74l0,0a3.65,3.65,0,0,1,4.46-1.09,3.82,3.82,0,0,1,2,2.31c.38,1.28.07,2.9-.93,5a21.23,21.23,0,0,1-1.38,2.48Zm6,.87.72-1.49c.83-1.74.42-3.2-.81-3.8-1.5-.72-2.63.14-3.43,1.8a7.59,7.59,0,0,0-.59,1.51Zm6.11,2.94a9.72,9.72,0,0,0,.74-1.34c.82-1.7,1-3.58-.9-4.47s-3.18.31-4.05,2.11L16,62.87Z"/><path d="M27.43,44.86c-1.67-1-3.69-2.31-5.12-3.34l0,0c1.08,1.35,2.19,2.84,3.38,4.55l4.19,6L29,53.24l-6.83-2c-2-.6-3.84-1.18-5.45-1.82l0,0c1.42,1,3.3,2.49,5,3.81l4.75,3.8-1,1.42-11-8.93,1.33-1.91,7,2c1.76.52,3.31,1,4.72,1.57l0,0c-1-1.11-2-2.42-3.05-4l-4.16-6,1.34-1.91,12.09,7.4-1,1.46Z"/><path d="M33.27,40.92l2.14,4.18-1.33,1.34-6.7-13.37,1.55-1.57L42.4,38,41,39.4l-4.23-2Zm2.25-4.31-3.88-1.87c-.88-.43-1.62-.87-2.35-1.29l0,0c.45.74.9,1.5,1.32,2.3l1.94,3.87Z"/><path d="M38.59,23.3a19,19,0,0,1,2.72-2.24c1.61-1.1,2.85-1.53,4-1.37a3.52,3.52,0,0,1,2.44,1.58,3.72,3.72,0,0,1-.15,4.49l0,0A3.52,3.52,0,0,1,51,27a22,22,0,0,0,3.1,2.58l-1.55,1.07a17.79,17.79,0,0,1-2.7-2.24C48.4,27,47.36,26.84,46,27.73l-1.42,1,3.48,5-1.5,1Zm5.16,4.27,1.54-1.06c1.61-1.11,2-2.7,1.1-4-1-1.5-2.57-1.41-4.18-.33a8.22,8.22,0,0,0-1.39,1.16Z"/><path d="M53.94,24.32a3.27,3.27,0,0,0,4.72,1.54,6.76,6.76,0,0,0,2.26-1.76l.88,1a8.1,8.1,0,0,1-2.71,2.11c-2.78,1.44-5.39.47-6.8-2.26s-.91-5.7,1.72-7.06c3-1.52,5.08.67,5.93,2.33a4.73,4.73,0,0,1,.34.79Zm4.21-3.66c-.53-1.06-1.81-2.45-3.66-1.49-1.66.85-1.6,2.76-1.14,4Z"/><path d="M64,24.64l-3-8.22-1.33.5-.49-1.32,1.34-.5-.19-.51A4.07,4.07,0,0,1,62.9,8.9a5.1,5.1,0,0,1,2.66-.26v1.5a3.93,3.93,0,0,0-2.21.19C61.51,11,61.45,12.48,62,14l.17.47,5.54-2L71.23,22l-1.71.64-3-8.22-3.82,1.41,3,8.22Z"/><path d="M71.67,14.1c-.23-1-.44-1.86-.69-2.67l1.6-.36.47,1.62h0A3.74,3.74,0,0,1,76,10.08c1.37-.31,3.69,0,4.46,3.43l1.33,5.92-1.8.41-1.29-5.72c-.36-1.6-1.25-2.8-3-2.41A2.69,2.69,0,0,0,73.76,15l1.34,6-1.8.4Z"/><path d="M84.42,14.32a3.25,3.25,0,0,0,3.8,3.18A6.76,6.76,0,0,0,91,16.72L91.41,18A8.1,8.1,0,0,1,88.1,19c-3.11.29-5.17-1.58-5.46-4.63s1.29-5.63,4.24-5.91c3.3-.31,4.45,2.52,4.63,4.38a6.35,6.35,0,0,1,0,.86Zm5.27-1.83c-.09-1.17-.77-2.94-2.84-2.75-1.86.18-2.51,2-2.54,3.26Z"/><path d="M93.65,11.41c0-1.2,0-2.23,0-3.17l1.61,0,0,2h.09A3,3,0,0,1,98.2,8.08a1.68,1.68,0,0,1,.52.07l0,1.74a2.74,2.74,0,0,0-.63-.07,2.58,2.58,0,0,0-2.51,2.33,5.35,5.35,0,0,0-.1.86l-.08,5.42-1.83,0Z"/><path d="M113.72,19.93a9.14,9.14,0,0,1-3.8.05c-3.94-.65-6.49-3.62-5.73-8.2a7,7,0,0,1,8.5-6.14,7.54,7.54,0,0,1,3.21,1.17l-.67,1.4a6.74,6.74,0,0,0-2.73-1c-3.27-.54-5.79,1.19-6.4,4.86-.56,3.42,1,5.94,4.44,6.5a7.21,7.21,0,0,0,3-.1Z"/><path d="M125,18.46c-1.11,3.6-4.08,4.4-6.43,3.68-2.63-.81-4.06-3.36-3.12-6.43,1-3.26,3.71-4.51,6.4-3.69S125.87,15.49,125,18.46Zm-7.74-2.27c-.66,2.13.07,4.12,1.8,4.65s3.44-.68,4.11-2.87c.51-1.65.33-4-1.76-4.63S117.78,14.35,117.22,16.19Z"/><path d="M127.94,17.05c.48-.94.85-1.72,1.17-2.49l1.44.72-.66,1.5.06,0a3.49,3.49,0,0,1,3.69-.23,3,3,0,0,1,1.65,3.11l0,0a4.19,4.19,0,0,1,1.6-.67,3.48,3.48,0,0,1,2.33.37c1.2.61,2.59,2.29,1,5.44l-2.69,5.35L136,29.38l2.58-5.13c.88-1.75.77-3.12-.56-3.79a2.38,2.38,0,0,0-2.7.52,3,3,0,0,0-.55.76l-2.82,5.6-1.62-.81L133,21.09c.73-1.44.62-2.81-.64-3.44a2.51,2.51,0,0,0-2.87.62A2.4,2.4,0,0,0,129,19l-2.76,5.47-1.61-.81Z"/><path d="M143.08,25.85c.77-1.05,1.36-1.92,1.9-2.72l1.33,1-1,1.45,0,0a4,4,0,0,1,4.08.55c2,1.46,2.23,4.23.4,6.72-2.17,2.94-5,3.07-7,1.65a3.57,3.57,0,0,1-1.57-3.14l0,0L138,35.79l-1.47-1.08Zm-.14,3.26a4.12,4.12,0,0,0-.38.66,2.85,2.85,0,0,0,.95,3.39c1.57,1.16,3.43.55,4.81-1.33,1.21-1.64,1.38-3.68-.19-4.84a2.94,2.94,0,0,0-3.61.19,3,3,0,0,0-.55.53Z"/><path d="M157.85,27.16l1.38,1.24-10,11.09-1.37-1.23Z"/><path d="M151.22,41.35l7.21-7.17,1.3,1.31-7.2,7.17Zm10.69-7.72A1.15,1.15,0,0,1,160.29,32a1.13,1.13,0,0,1,1.64,0A1.1,1.1,0,0,1,161.91,33.63Z"/><path d="M157.89,48.74l.89-.94,0,0a3.81,3.81,0,0,1-3.15-1.42,2.9,2.9,0,0,1,.24-4.26c1.89-1.57,4.32-.76,6.82,2.27l.16-.14a2.09,2.09,0,0,0,.33-3.28,5.12,5.12,0,0,0-2.28-1.54l.66-1.11a6.36,6.36,0,0,1,2.84,2c2,2.39.85,4.33-.71,5.64l-2.92,2.44A14.37,14.37,0,0,0,159,50Zm3.81-3.54c-1.26-1.57-3-3.1-4.52-1.83a1.64,1.64,0,0,0-.24,2.47,2.54,2.54,0,0,0,2.89.79,1.85,1.85,0,0,0,.51-.3Z"/><path d="M166.38,47.56c.89-.57,1.6-1.05,2.27-1.56l.89,1.38-1.36,1,0,0a3.74,3.74,0,0,1,3.43,1.79c.76,1.18,1.24,3.47-1.69,5.36l-5.11,3.29-1-1.56,4.93-3.17c1.38-.89,2.19-2.14,1.25-3.6a2.62,2.62,0,0,0-2.93-1.06,2.5,2.5,0,0,0-.79.36l-5.14,3.31-1-1.56Z"/><path d="M169.32,67.11a6.65,6.65,0,0,1-1.8-2.37A4.83,4.83,0,0,1,170,57.92a5.17,5.17,0,0,1,7.24,2.56,6.31,6.31,0,0,1,.65,2.54l-1.47.24a4.36,4.36,0,0,0-.5-2.14,3.52,3.52,0,0,0-5-1.55A3.49,3.49,0,0,0,169,64.4a5.16,5.16,0,0,0,1.44,1.82Z"/><path d="M174.26,67.84a3.25,3.25,0,0,0-2.18,4.45,6.59,6.59,0,0,0,1.43,2.48l-1.15.74a8.42,8.42,0,0,1-1.71-3c-1-3,.29-5.4,3.19-6.41s5.77-.11,6.75,2.68c1.09,3.13-1.37,4.93-3.14,5.55-.35.12-.64.18-.83.23Zm3,4.67c1.12-.37,2.68-1.45,2-3.41-.62-1.76-2.52-2-3.77-1.68Z"/><path class="cls-1" d="M9.61,82.58A85.53,85.53,0,1,0,179.22,98.3,86,86,0,0,0,178,83.86"/><path class="cls-2" d="M59.38,59.21l13.71,5.67c4.47,1.85,4.56,2.34,4.19-3.09-.29-4.12-.1-8.29-.1-12.44,0-.5-.13-1.16.43-1.43s1.07.38,1.46.77c3.49,3.46,7,6.9,10.4,10.41,1.34,1.38,2,1.42,2.77-.54C94,53.91,96,49.33,97.85,44.73c.2-.48.27-1.2.84-1.25.77-.07.82.76,1,1.27q4.48,10.64,8.94,21.28c.25.58.84,1.25.21,1.85s-1.15,0-1.71-.11c-19.44-4.84-37.52,7.14-40.69,27-2.42,15.09,8.77,31.6,23.66,35.07a33.6,33.6,0,0,0,16.55.07c.56-.15,1.25-.52,1.73-.05s0,1.28-.24,1.86q-4.2,10.26-8.47,20.49c-.19.46-.25,1.17-.88,1.2-.79,0-.84-.75-1.06-1.27-1.88-4.53-3.79-9-5.57-13.61-.69-1.77-1.32-1.9-2.62-.56-3.37,3.46-6.81,6.85-10.24,10.25-.46.45-.87,1.29-1.62,1s-.55-1.17-.53-1.82c.08-4.68-.25-9.35.21-14,.24-2.48-.11-2.76-2.39-1.83-4.12,1.67-8.22,3.4-12.34,5.1-.9.36-1.81.68-2.67,1-.68-.74-.18-1.26,0-1.77,1.89-4.61,3.75-9.22,5.73-13.79.76-1.75.33-2.23-1.52-2.19-4.9.09-9.81,0-14.71,0-.57,0-1.36.29-1.63-.39s.48-1,.88-1.44c3.42-3.4,6.87-6.78,10.3-10.18,1.73-1.72,1.71-1.75-.63-2.71-4.33-1.77-8.67-3.51-13-5.3-.66-.27-1.74-.34-1.7-1.21s1.09-.93,1.75-1.2c4.46-1.87,8.9-3.75,13.4-5.51,1.56-.61,1.69-1.11.49-2.28-3.52-3.41-7-6.89-10.43-10.37-.46-.46-1.32-.87-1.07-1.58s1.19-.43,1.82-.43c4.38,0,8.76,0,13.13,0,3.78,0,3.79,0,2.3-3.59-1.7-4.11-3.42-8.22-5.11-12.33C59.84,60.86,59.73,60.35,59.38,59.21Z"/><path d="M110.37,61.1a25,25,0,0,1,8.34,3.16C140.22,76,146,103.38,130.89,122.7a37.64,37.64,0,0,1-18.69,13c-.61.19-1.37.75-1.88.09s.27-1.09.57-1.59a66.83,66.83,0,0,0,10.17-38.34,67.47,67.47,0,0,0-9.83-32.55c-.31-.52-.62-1-.9-1.56C110.27,61.61,110.34,61.44,110.37,61.1Z"/></svg>