<svg id="Layer_1" data-name="Layer 1" xmlns="http://www.w3.org/2000/svg" width="193.87" height="190" viewBox="0 0 193.87 190"><defs><style>.cls-1{fill:none;stroke:#000;stroke-miterlimit:10;stroke-width:8px;}</style></defs><path d="M58.32,127.14c2.55-.29,5.14-.41,7.65-.91,5.14-1,7.53-3.94,7.57-9.13q.17-27.59.25-55.17a28.07,28.07,0,0,0-.33-4.67c-.62-3.84-3.7-6.47-8.34-7.14-1.81-.26-3.65-.3-5.48-.45a4.46,4.46,0,0,1-1.48-.28L82.71,44.6c2.91,7.18,2.65,15,3.35,22.78.5-1,1.06-2,1.49-3,4.35-10.27,12.24-16.44,22.77-19.47a21.08,21.08,0,0,1,12.6.16,12.36,12.36,0,0,1,6.26,4.64c1.18,1.65,2,3.48.84,5.42-1.23,2.12-3.33,2.81-5.69,2.67a6,6,0,0,1-4.55-2.47A17.61,17.61,0,0,1,118,52.42c-2.41-4.94-6.14-6.81-11.27-5-8.61,3-19.69,11-20,24.87-.26,12.45-.23,24.91-.29,37.36,0,2.75.16,5.5.24,8.24.12,4,2.16,7,6.08,8a61.17,61.17,0,0,0,8.15,1.08,4.62,4.62,0,0,1,1.7.3H58.33Z"/><path d="M122.49,69.65,134.71,68c0,.29.08.76.08,1.23,0,16.39,0,32.78-.14,49.17-.06,5.25-.4,10.55-2.81,15.45-3.72,7.53-10,12-17.72,14.63a49.75,49.75,0,0,1-8,1.91c1.42-.52,2.88-.95,4.25-1.57,7.08-3.21,10.95-8.7,11.42-16.47.29-4.94.61-9.9.64-14.85.08-15.36,0-30.73,0-46.1Z"/><path d="M101.8,151c-7.06.28-13.89.23-20.38-2.49a22.57,22.57,0,0,1-4.23-2.32c-2.19-1.54-3-3.87-2.14-5.75.71-1.61,3.53-2.8,5.77-2.44A7.49,7.49,0,0,1,86,141.56c.59.9,1.1,1.86,1.7,2.75a14.21,14.21,0,0,0,12.3,6.57c.43,0,.87,0,1.3,0A3.15,3.15,0,0,1,101.8,151Z"/><path d="M13,125.12c-1.84.84-4,1.85-5.73,2.5l0,.06c1.76-.17,3.66-.27,5.79-.33l7.47-.2.52,1.32-5.55,4.71c-1.65,1.39-3.17,2.62-4.62,3.63l0,0c1.69-.62,4-1.42,6-2.1l5.92-1.92.65,1.66L9.73,138.87l-.88-2.21,5.61-4.88c1.43-1.21,2.73-2.25,4-3.15l0-.06c-1.49.2-3.16.3-5.1.38l-7.46.17L5,126.91l13.13-6.17.67,1.7Z"/><path d="M12.91,119a3.33,3.33,0,0,0,2.76-4.26,6.82,6.82,0,0,0-1.14-2.7l1.25-.6a8.23,8.23,0,0,1,1.37,3.24c.69,3.12-1,5.44-4,6.11s-5.87-.6-6.52-3.56c-.73-3.31,2-4.83,3.86-5.24a7.79,7.79,0,0,1,.88-.13Zm-2.51-5.13C9.22,114.06,7.51,115,8,117c.41,1.87,2.31,2.31,3.63,2.17Z"/><path d="M8.12,110c-1.07.06-1.95.13-2.81.25l-.09-1.66,1.67-.17v-.07a3.57,3.57,0,0,1-2.09-3.15,3.08,3.08,0,0,1,1.92-3.06v0A4.29,4.29,0,0,1,5.3,101a3.58,3.58,0,0,1-.86-2.26c-.07-1.37.72-3.46,4.32-3.66l6.11-.33.1,1.84L9.1,96.9c-2,.11-3.16.9-3.07,2.42a2.42,2.42,0,0,0,1.83,2.14,3.18,3.18,0,0,0,1,.1l6.41-.36.1,1.85-6.22.34c-1.65.09-2.81.89-2.73,2.33a2.58,2.58,0,0,0,2,2.23,2.56,2.56,0,0,0,.93.1l6.26-.35.1,1.85Z"/><path d="M15.15,93c-.7-.12-1.74-.28-2.66-.39L0,91.17l.21-1.86L6.7,90v0a3.85,3.85,0,0,1-1.5-3.73c.28-2.57,2.62-4.14,5.76-3.77,3.69.41,5.27,3,5,5.25A3.7,3.7,0,0,1,13.64,91v.07l1.7.27Zm-3.92-2.41a3.17,3.17,0,0,0,.69,0A2.91,2.91,0,0,0,14.43,88c.22-2-1.25-3.32-3.62-3.58-2.07-.24-4,.63-4.18,2.64a3,3,0,0,0,2,3.12,3.37,3.37,0,0,0,.76.19Z"/><path d="M12.14,79.49a3.33,3.33,0,0,0,4.35-2.61A6.77,6.77,0,0,0,16.66,74h1.39a8.55,8.55,0,0,1-.2,3.51c-.76,3.11-3.26,4.47-6.31,3.72s-5-3.13-4.28-6.07c.8-3.3,3.92-3.47,5.78-3a6.48,6.48,0,0,1,.84.27Zm0-5.71C11,73.47,9,73.53,8.53,75.59c-.45,1.86,1.06,3.1,2.3,3.55Z"/><path d="M12.47,69.57c-1.16-.41-2.15-.75-3.09-1L9.94,67l1.94.63,0-.09a3.1,3.1,0,0,1-1.18-3.47,2,2,0,0,1,.24-.49l1.68.6a2.71,2.71,0,0,0-.28.59A2.66,2.66,0,0,0,13.81,68a5.43,5.43,0,0,0,.8.38l5.23,1.85L19.21,72Z"/><path d="M22.88,51.47c3.37,1.84,3.57,5,2.37,7.18-1.35,2.47-4.2,3.39-7.09,1.82-3.05-1.67-3.75-4.64-2.37-7.17S20.09,49.94,22.88,51.47ZM19,58.76c2,1.09,4.14.76,5-.86s0-3.58-2-4.71c-1.55-.84-3.93-1.14-5,.83S17.29,57.81,19,58.76Z"/><path d="M28.64,52.52l-7.39-5.06-.82,1.2-1.19-.81.83-1.21-.41-.28a4.89,4.89,0,0,1-2.32-3A3.65,3.65,0,0,1,18,40.68a4.5,4.5,0,0,1,1.16-1.16l1.06,1a2.91,2.91,0,0,0-.88.86c-.91,1.33,0,2.47,1.34,3.36l.46.32L22.54,43l1.19.81-1.42,2.07L29.7,51Z"/><path d="M26.16,34.66l-3,3.26L22,36.85l7.21-7.93L30.41,30l-3,3.28L37,41.92l-1.28,1.4Z"/><path d="M30.41,26.76l1.44-1.23,4.23,4.92,0,0a3.52,3.52,0,0,1,.16-1.89,3.9,3.9,0,0,1,1.11-1.67c1.06-.91,3.32-1.71,5.66,1l4,4.69-1.44,1.23-3.89-4.53c-1.09-1.27-2.49-1.94-3.84-.78a2.72,2.72,0,0,0-.69,3.09,2.3,2.3,0,0,0,.49.77l4.09,4.76-1.44,1.23Z"/><path d="M47,26.66a3.34,3.34,0,0,0,5,1.05,6.79,6.79,0,0,0,2.1-2l1,.95a8.38,8.38,0,0,1-2.53,2.44c-2.68,1.76-5.43,1.06-7.16-1.56s-1.55-5.7,1-7.37c2.84-1.86,5.24.13,6.29,1.73a6.94,6.94,0,0,1,.43.77Zm3.88-4.18c-.64-1-2.1-2.29-3.88-1.12-1.59,1.05-1.32,3-.73,4.16Z"/><path d="M55.21,10.88a20.17,20.17,0,0,1,3.18-1.7c1.84-.78,3.16-1,4.31-.57a3.62,3.62,0,0,1,2.14,2.08,3.8,3.8,0,0,1-1.05,4.47l0,.06a3.61,3.61,0,0,1,3.11,1.84,23.18,23.18,0,0,0,2.59,3.21L67.75,21a19.11,19.11,0,0,1-2.26-2.8c-1.18-1.66-2.19-2-3.77-1.44l-1.62.7,2.48,5.76L60.86,24Zm4.33,5.32,1.75-.76c1.84-.79,2.57-2.3,1.92-3.81-.74-1.72-2.31-1.94-4.13-1.17a7.75,7.75,0,0,0-1.63.88Z"/><path d="M70.4,15a3.33,3.33,0,0,0,4.42,2.49,7,7,0,0,0,2.62-1.31l.68,1.21A8.57,8.57,0,0,1,75,19c-3.07.88-5.49-.62-6.35-3.63s.23-5.9,3.14-6.73c3.26-.94,4.95,1.68,5.48,3.52a7.54,7.54,0,0,1,.18.87Zm4.95-2.83C75,11,74,9.34,72,9.93c-1.84.53-2.16,2.45-1.95,3.75Z"/><path d="M79.79,15.52a5,5,0,0,0,2.58.32c1.36-.24,1.87-1,1.73-1.87s-.77-1.28-2.23-1.56c-2-.34-3-1.2-3.21-2.43-.28-1.65.82-3.24,3-3.61a5.18,5.18,0,0,1,2.63.2L84.08,8a4.15,4.15,0,0,0-2.2-.23c-1.1.19-1.61.93-1.48,1.69s.83,1.12,2.25,1.4c1.89.38,3,1.11,3.22,2.63.31,1.8-.87,3.31-3.3,3.73a5.94,5.94,0,0,1-3-.21Z"/><path d="M87.54,9.11c-.07-1.33-.17-2.4-.27-3.38L89,5.64l.18,1.77h0a4.11,4.11,0,0,1,3.58-2.22c2.51-.13,4.51,1.89,4.69,5,.2,3.73-2,5.7-4.42,5.83a3.64,3.64,0,0,1-3.28-1.45h0l.3,5.64-1.86.1Zm2,2.67a4.41,4.41,0,0,0,.13.77,2.91,2.91,0,0,0,3,2c2-.11,3.06-1.8,2.93-4.18-.11-2.08-1.3-3.8-3.3-3.69a3,3,0,0,0-2.72,2.49,3.33,3.33,0,0,0-.09.78Z"/><path d="M109,11.12c-.3,3.84-3.09,5.3-5.59,5.1-2.81-.22-4.81-2.44-4.55-5.72.27-3.47,2.7-5.33,5.57-5.1S109.23,8,109,11.12Zm-8.23-.54c-.18,2.27,1,4.09,2.83,4.24s3.29-1.45,3.47-3.78c.14-1.76-.56-4-2.79-4.23S100.91,8.61,100.75,10.58Z"/><path d="M111.58,9.24c.23-1.05.39-1.92.51-2.77l1.64.35-.26,1.7h0a3.84,3.84,0,0,1,3.78-1.18c1.4.3,3.4,1.61,2.65,5.09l-1.31,6.07-1.84-.4,1.26-5.85c.35-1.64,0-3.14-1.7-3.51a2.69,2.69,0,0,0-2.89,1.35,3,3,0,0,0-.31.84l-1.32,6.11-1.84-.4Z"/><path d="M121.14,17.29a4.85,4.85,0,0,0,2.12,1.51c1.3.45,2.13,0,2.41-.81s-.06-1.5-1.22-2.43c-1.55-1.24-2-2.49-1.65-3.67.54-1.59,2.26-2.46,4.38-1.74a5.17,5.17,0,0,1,2.21,1.44l-.89,1.14a4.09,4.09,0,0,0-1.82-1.25,1.52,1.52,0,0,0-2.11.78c-.27.82.19,1.38,1.31,2.31,1.49,1.23,2.07,2.38,1.57,3.84-.59,1.73-2.34,2.5-4.68,1.7a5.86,5.86,0,0,1-2.54-1.61Z"/><path d="M128.24,21.92l4.08-9.56,1.74.74L130,22.66Zm7.17-11.42a1.17,1.17,0,0,1-2.16-.92A1.16,1.16,0,0,1,134.8,9,1.12,1.12,0,0,1,135.41,10.5Z"/><path d="M132.18,23.53c.38-.6.92-1.5,1.37-2.31l6-11,1.64.9-3.14,5.72,0,0a3.88,3.88,0,0,1,4,0c2.26,1.24,2.83,4,1.29,6.76-1.79,3.26-4.73,3.76-6.77,2.64a3.7,3.7,0,0,1-2.11-3.39l-.06,0-.9,1.47Zm3.72-2.71a4.3,4.3,0,0,0-.26.64,2.93,2.93,0,0,0,1.43,3.31c1.73.95,3.54.1,4.69-2,1-1.83.92-3.91-.85-4.88a3,3,0,0,0-3.64.65,3.33,3.33,0,0,0-.47.63Z"/><path d="M150.78,16.75l1.57,1.07-8.59,12.6-1.56-1.07Z"/><path d="M149.77,28.76a3.33,3.33,0,0,0,.47,5.05,6.71,6.71,0,0,0,2.56,1.41l-.6,1.25a8.37,8.37,0,0,1-3.09-1.69c-2.47-2-2.61-4.87-.63-7.3s5-3.16,7.33-1.24c2.63,2.15,1.43,5,.22,6.51a6.73,6.73,0,0,1-.61.64Zm5.14,2.47c.78-.92,1.57-2.69-.07-4-1.48-1.21-3.25-.38-4.19.54Z"/><path d="M169.27,34l1.25,1.39-7.23,6.45c-2.87,2.56-5,1.93-6.67.07a5.83,5.83,0,0,1-1.07-1.72l1.32-.8a4.33,4.33,0,0,0,.83,1.35c1.12,1.25,2.34,1.49,4.45-.4Z"/><path d="M165.74,44.72a3.33,3.33,0,0,0-.84,5,7,7,0,0,0,2.11,2l-.91,1a8.46,8.46,0,0,1-2.54-2.43c-1.87-2.6-1.28-5.38,1.27-7.21s5.63-1.78,7.4.68c2,2.75.08,5.23-1.47,6.35a6.69,6.69,0,0,1-.75.46Zm4.34,3.71c1-.68,2.2-2.19,1-3.92-1.12-1.55-3-1.2-4.19-.56Z"/><path d="M176.48,50.49l-4.07,3.63c-.89.8-1.72,1.54-2.59,2.2l0,.06c1.05-.27,2.2-.47,3.35-.68l5.49-.92.73,1.42L175.53,60c-.93.91-1.77,1.68-2.59,2.37l0,.06a32.5,32.5,0,0,1,3.37-.84l5.32-1.06.85,1.66L171.72,64l-.78-1.53,3.68-3.68a33,33,0,0,1,2.62-2.38l0,0a32,32,0,0,1-3.49.73l-5.16.77-.78-1.53,7.81-7.54Z"/><path d="M178.19,67.08a3.34,3.34,0,0,0-2.28,4.54,6.76,6.76,0,0,0,1.44,2.55l-1.18.74a8.33,8.33,0,0,1-1.72-3.07c-1-3,.35-5.51,3.32-6.52s5.9,0,6.87,2.81c1.09,3.22-1.44,5-3.25,5.65a7.78,7.78,0,0,1-.86.22Zm3.06,4.81c1.14-.36,2.75-1.45,2.06-3.46-.61-1.81-2.55-2-3.84-1.76Z"/><path d="M191.1,73.7l.44,1.83-14.82,3.59-.45-1.83Z"/><path d="M179.43,95.74a9.37,9.37,0,0,1-1-3.75c-.36-4.06,1.94-7.35,6.67-7.77a7.2,7.2,0,0,1,8.24,6.87,7.82,7.82,0,0,1-.34,3.48l-1.56-.32a6.72,6.72,0,0,0,.34-3c-.29-3.38-2.65-5.44-6.44-5.1-3.53.31-5.62,2.54-5.31,6a7.53,7.53,0,0,0,.87,3Z"/><path d="M183.77,106.53c-3.84-.17-5.4-2.91-5.29-5.42.13-2.81,2.28-4.89,5.56-4.74,3.48.15,5.42,2.51,5.3,5.39S187,106.66,183.77,106.53Zm.26-8.25c-2.28-.1-4.05,1.13-4.13,3s1.55,3.23,3.89,3.33c1.76.08,4-.7,4.13-2.94S186,98.37,184,98.28Z"/><path d="M179.56,116.77c-1.06-.19-2-.34-2.81-.41l.29-1.65,1.69.19v0a3.94,3.94,0,0,1-1.3-3.73c.28-1.6,1.52-3.37,5.11-2.73l6,1.06-.34,1.86-5.66-1c-1.95-.35-3.37,0-3.67,1.7a2.72,2.72,0,0,0,1.26,2.75,2.66,2.66,0,0,0,.92.34l6.28,1.12-.33,1.86Z"/><path d="M174.37,125.66a7,7,0,0,1,.3-3,4.94,4.94,0,0,1,6.59-3.4,5.29,5.29,0,0,1,3.64,7,6.34,6.34,0,0,1-1.28,2.35l-1.27-.84a4.35,4.35,0,0,0,1.11-2A3.92,3.92,0,0,0,176,123.4a5.4,5.4,0,0,0-.18,2.37Z"/><path d="M173.33,127l9.66,3.86-.7,1.75-9.66-3.86Zm11.59,6.9a1.17,1.17,0,0,1,.87-2.18,1.16,1.16,0,0,1,.66,1.54A1.12,1.12,0,0,1,184.92,133.93Z"/><path d="M185.37,137.74l-.8,1.72L170.75,133l.8-1.72Z"/><path class="cls-1" d="M23.35,144.54A87.49,87.49,0,0,0,169.88,146"/></svg>