<svg id="Layer_1" data-name="Layer 1" xmlns="http://www.w3.org/2000/svg" width="327.83" height="412.24" viewBox="0 0 327.83 412.24"><path d="M319.28,344.6a86.87,86.87,0,0,0-40.71-59.91c-19.06-11.57-44.13-23.34-63.39-30.6V238.9a77.27,77.27,0,0,0,23.88-44.85c11.1-.52,20-11.1,20-24.12,0-12.63-8.35-22.92-18.94-24.06V138h7.91a17.39,17.39,0,0,0,.53-34.77,82.87,82.87,0,0,0-61-76.32l-.23-1.14a22.1,22.1,0,0,0-43.4,0l-.24,1.17c-34.76,9.45-59.14,40-61,76.32A17.39,17.39,0,0,0,83.18,138h7.91v7.89C80.5,147,72.15,157.3,72.15,169.93c0,12.92,8.78,23.42,19.77,24.09A73.62,73.62,0,0,0,116,239.16v14.93a421.69,421.69,0,0,0-63.4,30.61,86.82,86.82,0,0,0-40.7,59.89,4.57,4.57,0,0,0,1.94,4.53c45.22,31,95.21,51,150.25,51,55.86,0,106.7-20.44,153.15-51a4.63,4.63,0,0,0,2-4.59Zm-48.2,19.33c-69.17,34.58-140.19,36.9-212.45.78V332.64a6.94,6.94,0,0,1,6.93-7.1H264.15a7,7,0,0,1,6.93,7.1ZM98.63,271.28V318.8H75.34V282.57C82.91,278.57,90.79,274.79,98.63,271.28Zm67,35.43a49.54,49.54,0,0,0,49.07-42.95c2.33.91,5.29,2.1,8.74,3.56V318.8H107.83V267.28c3.44-1.43,6.38-2.6,8.69-3.5a49.58,49.58,0,0,0,49.13,42.93ZM256,282.63V318.8H232.65V271.39C241.47,275.31,245.75,277.23,256,282.63Zm-3.11-112.5c0,9-5.63,16.42-12.92,17.74.06-1.34.2-2.65.2-4V152.34c7.2,1.42,12.72,8.83,12.72,17.79ZM185.15,68.94a19.46,19.46,0,1,1-19.46-19.46A19.47,19.47,0,0,1,185.15,68.94ZM165.65,17c12.52,0,13,13.45,13.36,14.06V46.33a25.68,25.68,0,0,0-26.79,0V31.09C152.53,30.48,153,17,165.65,17ZM142.31,34.6V54a27.29,27.29,0,1,0,46.61,0V34.6a76.05,76.05,0,0,1,52.84,68.52H89.47A76.08,76.08,0,0,1,142.31,34.6ZM73.53,120.72c0-5.71,3.72-10.35,8.31-10.35h168c4.81,0,8.31,4.84,8.31,10.35,0,5.71-3.73,10.35-8.31,10.35h-168c-4.5,0-8.31-4.52-8.31-10.35Zm5.39,49.42c0-9,5.28-16.37,12.15-17.8v33.9c0,.55.07,1.08.09,1.63-6.92-1.38-12.24-8.78-12.24-17.73Zm18.47,13.59V138H233.58v43.76a67.86,67.86,0,0,1-64.78,68.07C129.87,251.66,97.39,221.64,97.39,183.73Zm68.05,73.08c1.3,0,2.61,0,3.92-.1a73.16,73.16,0,0,0,38.52-13.25v12.37c0,24.37-19,44.2-42.27,44.2s-42.33-19.83-42.33-44.2V243.75a74.48,74.48,0,0,0,42.16,13.06Zm-108,35.76c3.1-1.86,6-3.51,8.74-5.06V318.9A16,16,0,0,0,51,334.84V361a324.48,324.48,0,0,1-29.48-17.79A77.77,77.77,0,0,1,57.4,292.57Zm222.87,67.75V334.84a16,16,0,0,0-15.07-15.93V287.58c3.06,1.71,6,3.37,8.58,5a77.78,77.78,0,0,1,35.88,50.6c-9.86,6.38-19.7,12.11-29.39,17.17Z"/><path d="M165.62,194.65a12.51,12.51,0,0,0,8.93-3.7,4.6,4.6,0,1,0-6.51-6.5,3.51,3.51,0,0,1-4.85,0,4.6,4.6,0,0,0-6.5,6.5,12.54,12.54,0,0,0,8.93,3.7Z"/><path d="M124.23,164.15a5.05,5.05,0,0,0,6.27-1.47,6.33,6.33,0,0,1,10.08,0,4.8,4.8,0,0,0,4,2,5.12,5.12,0,0,0,2.27-.51,3.63,3.63,0,0,0,1.72-5.35,16.37,16.37,0,0,0-26.06,0,3.63,3.63,0,0,0,1.72,5.35Z"/><path d="M184.39,164.15a5.05,5.05,0,0,0,6.27-1.47,6.33,6.33,0,0,1,10.08,0,4.8,4.8,0,0,0,4,2,5.12,5.12,0,0,0,2.27-.51,3.63,3.63,0,0,0,1.72-5.35,16.37,16.37,0,0,0-26.06,0,3.63,3.63,0,0,0,1.72,5.35Z"/><path d="M190.69,198.9c-16.87,8.71-33.28,8.71-50.15,0a4.64,4.64,0,0,0-4.5.29,4.83,4.83,0,0,0-2.21,4.06A31.79,31.79,0,1,0,197.4,203a4.6,4.6,0,0,0-6.71-4.09Zm-25.16,28.93c-11.28,0-20.9-8.05-24.38-19.22a61.55,61.55,0,0,0,48.77,0c-3.49,11.17-13.11,19.22-24.39,19.22Z"/></svg>