<svg id="Layer_1" data-name="Layer 1" xmlns="http://www.w3.org/2000/svg" width="392.49" height="182.87" viewBox="0 0 392.49 182.87"><defs><style>.cls-1{fill:#fff;}</style></defs><path d="M376.25,181.26c-.95-.42-.95-.85,0-1.27,1.58-1,3.59.4,5.09-1,1-11.68,1-11.68-10.6-11.68h-2.49c-10.49,0-10.49,0-10.68,10.62.62,2.66,3.4.88,4.65,2.26a.52.52,0,0,1,0,.8c-1.95,1-4,.7-6,.23H352.6a10.6,10.6,0,0,1-6.21-.08l-.43-.25c7.34-.74,5.78-6.27,5.77-10.86,0-4.92-.22-9.83-.35-14.74-1.45-1.47-3.52,0-5.06-1.05l-.49-.64c5.81-.57,11.63-1.37,17.38.47-1.38,1.35-3.38-.14-4.78,1.06-2.37,10.15-1.95,10.71,8.07,10.7,2.48,0,4.95,0,7.43,0,8.95-.07,7.6,1.48,7.69-8a16,16,0,0,0-.33-2.46c-1.36-1.68-3.51,0-5-1.17l-.59-.56c5.49-.71,11-1.45,16.42.42-1.25,1.33-4-.42-4.61,2.29l.06,21.52c.56,2.81,3.42.91,4.68,2.27a.54.54,0,0,1,0,.87c-1.65,1-3.34.65-5,.2h-4.68A12,12,0,0,1,376.25,181.26Z"/><path d="M307.94,159.22c.46-1.56,1.66-2.71,2.4-4.13,1.87-3.6,6.12-3.29,7.94.27,3,5.87,6.11,11.71,9,17.65,1.85,3.82,3.77,7.35,9.75,7.06-3.94,1.6-10.17,1.85-16.56,1,3.42-2.92,2.84-6.22-1.95-11-.33-.32-.64-.64-.95-1a18,18,0,0,1-2.75-5.6c-1-2.82-2.64-3.28-5.08-1.82C308.12,161.6,307.84,160.55,307.94,159.22Z"/><path d="M213.51,181.25c-10-1.64-15.53-6.36-15.75-13.46-.21-6.51,6-12.52,15-14.56,1.44-.76,2.84-1,4.12.31-.13,1.91-1.84,2.19-3.08,2.85-4.12,2.2-8,5-7.95,10,0,5.51,4,8.83,8.4,11.56,1.31.82,3.41.69,3.6,2.9C216.5,182.14,215,181.66,213.51,181.25Z"/><path d="M10,154.13c-2.35.9-5,1.71-4.84,4.85s2.93,3.71,5.27,4.43c3.16,1,6.42,1.63,9.59,2.6s5.75,2.77,6,6.46-1.2,6.43-4.84,7.73c-1.25.24-1.63-.29-1.31-1.46,2.61-4.35,2-6.57-2.53-8.4-3.06-1.21-6.31-1.94-9.46-2.91C4,166.25.4,164.42.53,159.88c.12-4.27,3.6-5.93,7.37-6.78C9,152.7,10.07,152.22,10,154.13Z"/><path d="M157.6,181.25c-6.94-1.77-8.63-3.7-8.94-10.48-.11-2.48-.06-5-.06-7.45,0-6.63,0-6.63-5.41-9.45,3.82-1.17,13.86-1,16.47.28-1.32,1.4-3.52-.45-4.75,1.27-1.55,6.34-.72,12.71.09,19,.52,4.09,4.42,4.81,7.74,5.77C161.5,182.85,159.41,181.37,157.6,181.25Z"/><path d="M266.62,180.19c2.46-4.77,2.87-9.55-1.12-13.6C261,162,258,155.65,250.92,153.66H268.5c-7.49,2.37-3.31,4.77-1.35,7.15,1.27,1.54,2.58,3,3.88,4.55,2.91,4,1.7,9,3.26,13.33.42.5.84,1,1.27,1.51a.84.84,0,0,1-.45,1.34C272.32,180.83,269,183.37,266.62,180.19Z"/><path d="M224.89,153a41.93,41.93,0,0,1,5.25,1.15c7.14,2.51,11.45,7.53,11.54,13.24.09,5.45-4.28,10.21-11.79,12.87-1,.42-1.95.51-2.51-.71a3.8,3.8,0,0,1,1.7-2.89c8.53-7.43,4.84-15.1-3.69-19.67-1.77-1-4.35-.87-4.89-3.55C221.85,152.15,223.38,152.7,224.89,153Z"/><path d="M92.93,177.26c-3.65-3.67-6.54-7.85-4.36-13.16,2.71-6.61,8.13-10.06,15.19-11,1-.59,1.82-.55,2.36.61-.36,1.9-2.1,2.37-3.43,3.24-7,4.6-8.13,8.71-4.25,16.09a5.59,5.59,0,0,1,1,3.21c-.63,2.1-2.42,2.36-4.19,2.65A2.56,2.56,0,0,1,92.93,177.26Z"/><path d="M55,181.13l-8.84.11a11.31,11.31,0,0,1-6.29,0q-1.45-.62,0-1.23c1.57-1,3.58.35,5.1-.95l0,0a99.09,99.09,0,0,0,.06-22.9l0,0a1.49,1.49,0,0,1,.17-2.3c1.69.31,4.06-1.51,4.9,1.54,2,3.34.28,7.05,1,10.51-.17,4.42-2.4,9,1.11,13.12a.69.69,0,0,1,.7.28C53.56,180,55.53,179.14,55,181.13Z"/><path d="M274.29,178.69c-3.87-3.77-2.92-8.71-3.27-13.34,3.73-4.09,5.67-9.65,10.56-12.81,1.26-.81,2.4-2.16,3.87-.73s3.13,3.27.19,5.15c-1.52,1-2.91,2.16-4.36,3.25C275,164.89,273.6,171.39,274.29,178.69Z"/><path d="M120.06,154.08a16.48,16.48,0,0,1,10.33,7.76c2.91,4.9,2,8.93-2.93,14.58-2.2,2.65-4,2.58-5.36-.75a8.52,8.52,0,0,1,.84-3.31c2.11-6,1.21-9.22-3.68-13.52-1.31-1.14-3.21-1.93-2.73-4.24C117.54,153.3,118.79,153.61,120.06,154.08Z"/><path d="M122.73,175.66c1.16,2.84,3.1.84,4.73.76,5.35,2.5,11.59,1.37,17.15,3.92a6,6,0,0,1-6.77,2.26,88.26,88.26,0,0,0-17-2.65,39.68,39.68,0,0,0-6.16.5c-2.64.3-5.31,0-7.94.43-1.6-.39-3.13-1-4.76-1.35s-3.1-1.32-2.26-3.51C107.36,175.45,115,173.65,122.73,175.66Z"/><path d="M173.52,179c1.22-1.17,3-1.82,3.31-3.8l0,0c2.12-5.95.71-12.07.85-18.12,0-1.4-1.19-1.82-2.46-1.9s-2.74.37-3.32-1.91H186.4c.4,1.35-.66,1.86-1.58,1.81-3.07-.15-2.95,1.83-3,3.93q0,6-.25,11.91c-.17,4.61-2.26,7.85-6.84,9.2A1.39,1.39,0,0,1,173.52,179Z"/><path d="M307.94,159.22l1.64,2c1.73,3.27-1.16,5.32-2.1,7.88-.31.37-.62.73-1,1.08-3.59,1.76-4.2,5.51-5.75,8.63,1.08,1.93,3.37-.07,4.59,1.42a.58.58,0,0,1,0,.84c-1.64,1-3.35.62-5.06.25h-3.58c-1.5,0-3.4,1.54-4.17-1.12,3.36.22,5-2.09,6.39-4.53C302,170.22,305,164.7,307.94,159.22Z"/><path d="M52.22,179c-4.35-4-2.16-8.63-1.11-13.12,3.71-.76,8.48,1.82,10.76-3.59a1.09,1.09,0,0,1,2.08.5,30.16,30.16,0,0,1,.1,7.41c-.26,1.73-1.61,1.37-2.32,0-2.06-3.89-5.8-2.24-8.86-2.74-1.13-.18-1.86.63-1.79,1.83C51.27,172.6,50.24,176,52.22,179Z"/><path d="M50.07,155.39c-1.38-1.81-3.37-1-5.13-1.2a4.88,4.88,0,0,1-4.7,0c.45-2,2-1.07,3.11-1.08,8.08,0,16.18.3,24.24-.16,4.75-.27,4.83,3.32,5.9,5.87.68,1.64-1,1.59-2.14.85-2.17-1.39-4.33-2.81-6.5-4.21-3.91-1.84-8.16.14-12.12-1.11Z"/><path d="M4.84,180.2c-5.71,0-5.91-.52-3-8.21,1.71,2.58,2.71,5.42,5.29,6.93C7.22,180.87,6.16,180.76,4.84,180.2Z"/><path d="M67.84,178.93c1.7-1.15,3.38-2.34,5.11-3.44.85-.54,1.62-2.17,2.78-1,.93,1-.11,2.11-.74,3-.91,1.27-1.91,2.48-2.86,3.71-3.46-.06-7.17,2.1-10.25-1.19h0C63.7,178.83,66.1,180.62,67.84,178.93Z"/><path d="M100.05,176.63c1.43,2.83,4.73,1.6,6.77,3.09a1,1,0,0,1,1.26.73c-.8,1.83-2.2,1.12-3.5.81-2.37.35-4.44-.9-6.67-1.27-.67-1.12-3.23.85-3-1.81l3.94-2.08C99.5,175.78,99.89,176,100.05,176.63Z"/><path d="M120.06,154.08c-1.15.28-2.56-.08-3.29,1.28a10.32,10.32,0,0,1-10.92-1.27l-2.09-1A23.77,23.77,0,0,1,120.06,154.08Z"/><path d="M227.68,179.19l2.21,1.1a22.42,22.42,0,0,1-16.38,1c1.35-.49,3,.13,4.15-1.06C220.79,177.76,224.09,177.06,227.68,179.19Z"/><path d="M17.33,153c1.75,1.16,5-2.2,5.76,1.95,0,1.53,1.88,3.58-1.18,4.26a14.47,14.47,0,0,0-7.85-5.12C14.46,151.7,16.11,153,17.33,153Z"/><path d="M45,156.19a56.08,56.08,0,0,1-.06,22.9Z"/><path d="M157.6,181.25c1.67-.58,3.65.35,5.14-1.07l7-.1c.52.82,1.8.2,2.23,1.18A23.43,23.43,0,0,1,157.6,181.25Z"/><path d="M61.88,180.05c3.24,1.92,6.89.23,10.25,1.19a53.69,53.69,0,0,1-16.45,0A1.8,1.8,0,0,1,57,179.94Z"/><path d="M266.62,180.19c2.83,1.58,5.85.59,8.78.64.28.17.39.36.35.59s-.1.36-.18.36H262.5C263.51,179.41,265.18,180.1,266.62,180.19Z"/><path d="M104.58,181.26c1.1-.3,2.39,0,3.25-1,2.32-1.19,4.65-.71,7-.07a2.31,2.31,0,0,1,1.2,1A16.84,16.84,0,0,1,104.58,181.26Z"/><path d="M11,180.12l5,0c.8.93,2.24-.14,3,1-3.74,1.83-7.51,1.39-11.3.16C8.45,179.82,10,180.69,11,180.12Z"/><path d="M224.89,153c-1.34.57-3-.15-4.18,1.05a2.58,2.58,0,0,1-4.05,0c-1.11-1.13-2.65-.4-3.91-.9A18.45,18.45,0,0,1,224.89,153Z"/><path d="M17.33,153c-1.08.39-2.41,0-3.27,1.09l-4.06,0-2.1-1A12.51,12.51,0,0,1,17.33,153Z"/><path d="M306.52,170.16l.12-1.29c3.93-2.43,7.85-2.23,11.76.06,0,.38.07.77.11,1.15Z"/><path d="M95,178.18c.79.93,2.66.09,3,1.81a23.51,23.51,0,0,1-5,0c-3.53-.74-.48-1.81,0-2.75Z"/><path d="M52.73,154.31c4.06.11,8.29-1.54,12.12,1.11Z"/><path d="M116,181.2l-.63,0c-1.29-.63-1.37-1.28,0-2,1.86,0,3.81-.69,5.47.76C119.47,181.33,117.79,181.42,116,181.2Z"/><path d="M11,180.12c-.82,1.16-2.16.88-3.3,1.17a3.94,3.94,0,0,1-2.89-1.09,2.75,2.75,0,0,0,2.3-1.28Z"/><path d="M172,181.26l-2.23-1.18,3.78-1.07,1.25,1.16A3.62,3.62,0,0,1,172,181.26Z"/><path d="M275.57,181.78a5.12,5.12,0,0,0-.17-.95,2,2,0,0,1,.16-.63c1.37-.22,2.76-.49,4.12.75C278.34,182.61,276.89,181.86,275.57,181.78Z"/><path d="M19,181.13c-1-.24-2.23.11-3-1l3.81-1.43,1.31,1.46Z"/><path d="M387.52,156.4c.14-3.58,2.73-2.22,4.61-2.29C390.91,155.51,388.39,154.29,387.52,156.4Z"/><path d="M21.91,159.23c1.44-1.13.94-2.8,1.18-4.26a16.14,16.14,0,0,1,.83,3.73C23.91,160.7,22.93,160.36,21.91,159.23Z"/><path d="M362.22,180.23c-1.85-.13-4.47,1.32-4.65-2.26C358.48,180,361.09,178.61,362.22,180.23Z"/><path d="M392.26,180.19c-1.86-.13-4.56,1.45-4.68-2.27C388.46,180.08,391.11,178.59,392.26,180.19Z"/><path d="M57,179.94l-1.33,1.32-.39.13-.33-.26-2-1.83Z"/><path d="M67.84,178.93c-1.65,2.17-3.88,1.25-6,1.13Z"/><path d="M292.58,180.18c1.14,1.29,2.87.41,4.17,1.12-1.31,1-2.84.72-4.2.44C291.57,181.54,290.75,180.67,292.58,180.18Z"/><path d="M39.83,181.24a12,12,0,0,1,6.29,0A7.51,7.51,0,0,1,39.83,181.24Z"/><path d="M346.39,181.18a12.44,12.44,0,0,1,6.21.08A6.68,6.68,0,0,1,346.39,181.18Z"/><path d="M356.28,181.26a14.48,14.48,0,0,1,6-.23C360.32,182.57,358.3,182,356.28,181.26Z"/><path d="M376.25,181.26a11.62,11.62,0,0,1,6.3,0A7.12,7.12,0,0,1,376.25,181.26Z"/><path d="M40.24,154.15l4.7,0,.06,2C43.8,154.55,41.58,155.39,40.24,154.15Z"/><path d="M154.91,155.42c1.11-2.18,3-1.36,4.75-1.27C158.29,155.39,156.41,154.7,154.91,155.42Z"/><path d="M346.32,154.28c1.83-.34,3.74-1.08,5.06,1.05Z"/><path d="M358.43,155.17c1.22-2,3.09-1.11,4.78-1.06C361.86,155.56,360,154.49,358.43,155.17Z"/><path d="M305.36,180.21c-1.6-.26-3.71,1.15-4.59-1.42C302.1,179.92,304.22,178.49,305.36,180.21Z"/><path d="M300.33,181.3l5.06-.25C303.77,182.51,302.06,182,300.33,181.3Z"/><path d="M381.34,179c-1.35,2.2-3.28,1.24-5.09,1C377.79,178.82,379.71,179.7,381.34,179Z"/><path d="M44.93,179.06c-1.36,2.15-3.29,1.23-5.1.95Z"/><path d="M376.3,154.25c1.8-.21,3.78-1.15,5,1.17Z"/><path d="M387.23,181.26a10.36,10.36,0,0,1,5-.2C390.64,182.45,388.94,182.05,387.23,181.26Z"/><path d="M115.34,179.19c0,.66,0,1.31,0,2-2.42-1.15-5-1.08-7.56-.91-.33-.18-.67-.35-1-.52C109.6,178.59,112.48,179.08,115.34,179.19Z"/><path d="M193.62,4.78c12.46,0,24.93.16,37.39-.08,4.87-.09,7.41.19,7.87,6.52,1.6,22.06,1.19,43.83-5.43,65.12-6.09,19.57-16.76,35.73-35.19,46.06-3.52,2-6.29,2.2-9.92,0-20.81-12.38-32.37-31.23-38-54a153,153,0,0,1-2.49-59.92c.54-3.55,2.1-3.79,4.88-3.78C166.37,4.82,180,4.78,193.62,4.78Z"/><path class="cls-1" d="M208.25,70.86c1,.49,2.1.9,3.07,1.48,2.4,1.43,3.73,3.44,2.46,6.21s-3.67,2.36-6,1.77c-.6-.16-1.17-.43-2.73-1,2.44,6.43,3.88,12.31,1.06,18.54-.85.61-4.66-2.73-4.16,2.63.14,1.46-2.16.84-3.3.59-1.58-.35-1.55-1.74-.89-2.76A61.92,61.92,0,0,1,202.42,92c2.09-2.49,2-4.84-.23-7-1.9-1.82-4.23-3.15-5.64-5.52-.81-1.37-2.5-1.11-3.64-.74a13.58,13.58,0,0,0-8.72,11.82c-1.69,1.36-5.67-5.1-6,1.75,0,.6-3.19.85-4.47-.43s-.71-2.57.86-3.57c2.72-1.74,5.92-2.51,8.08-5.41,1.92-2.56,4.12-4.71,3.85-8.2a1.86,1.86,0,0,1,.46-1.38c5.71-4.26-.1-7.72-.88-11.47-.44-2.15-2.53-1.56-3.64-.79-2.8,2-6,3.88-5.07,8.14-1.39,0-3.54-4.07-3.58.91,0,1.06-2.06.89-2.91,0a2.64,2.64,0,0,1,.21-4.3c3.43-2.85,6.95-5.6,10.36-8.47.64-.54,1.91-1.19,1-2.32-.46-.57-1.4-.75-2.12-1.11-1.21,4.18-5-1.69-6.7,1.67-.22.44-2-.88-2.11-2.13-.09-1.51.82-2.29,2.31-2.74,3.89-1.17,7.58-.33,11,1.36,1.89.93,3.1,1.5,4.44-.56.85-1.32,2.45-1.62,3.83-2.17,4.56-1.83,5.44-6.15,2-9.69-.6-.63-1.45-1.36-2.11-.87-4.45,3.29-6.16-2.37-9.58-2.32,4.27-1.13,4.27-1.13,2-6,6.89-1.22,13.81,1.31,20.84-.75-3.37,5.74-.08,10.79,1.19,15.93.54,2.16,2.46,1.11,3.56.08a9.48,9.48,0,0,0,2.47-5.3c.37-1.74.48-1.74,2.37-1.05.85.31,1.2-.15,1.46-.82a13.57,13.57,0,0,1,2.26-4.34c.73,4.21-.85,7.93-2.52,11.67C213.85,53,210,59.67,202.94,63.82c-.36.21-.83.89-.73,1.11,1.62,3.53,1,7.88,3.93,10.88,1.14,1.17,2.52,2.23,4.38,1.94a1.16,1.16,0,0,0,1-1.44c-.24-1.71-1.56-2.39-3-3a6.67,6.67,0,0,1-1.21-.86A1.23,1.23,0,0,1,208.25,70.86Z"/><path class="cls-1" d="M177.34,26.49c-6.8,1.21-7.89,5.95-8.51,11.42-.16-6.23-1.48-11.37-9.65-11,2.78-1.62,5.36-.82,7.49-3.59s.49-5.44,2.34-7.77C170,20.33,169.38,26.49,177.34,26.49Z"/><path class="cls-1" d="M208.25,70.86l-.94,1.61c-3.17-4.24-2.68-4.71,2.12-6,2.66-.73,6.35-.75,7.52-4.7,3.18,3.85-.49,6.28-1.07,10-2-3.52-4.83-3.39-7.54-2.91C206.75,69.09,207.45,70.12,208.25,70.86Z"/></svg>