<svg id="Layer_1" data-name="Layer 1" xmlns="http://www.w3.org/2000/svg" width="408.33" height="529.09" viewBox="0 0 408.33 529.09"><path d="M204.17,0c-57.75,0-105,47.83-105,106.17v43.75H17.5A17.18,17.18,0,0,0,0,167.42V441.59a87.38,87.38,0,0,0,87.5,87.5H320.83a87.38,87.38,0,0,0,87.5-87.5V167.42a17.18,17.18,0,0,0-17.5-17.5H309.17V106.17C309.17,47.83,261.92,0,204.17,0Zm-70,106.16c0-39.08,31.5-71.17,70-71.17s70,32.08,70,71.17v43.75h-140ZM373.34,185.5V442.17a52.28,52.28,0,0,1-52.5,52.5H87.5A52.28,52.28,0,0,1,35,442.16V185.49H99.17v30.33a17.5,17.5,0,1,0,35,0V185.49h140v30.33a17.5,17.5,0,0,0,35,0V185.49Z"/></svg>