<svg xmlns="http://www.w3.org/2000/svg" width="82.982" height="82.576" viewBox="0 0 82.982 82.576">
  <g id="noun_wave_4420992" transform="translate(-41.133 -6.791)">
    <g id="Group_5" data-name="Group 5" transform="translate(41.133 6.791)">
      <path id="Path_10" data-name="Path 10" d="M46.724,299.016c7.1.023,11.49-4.384,14.963-7.546s6.054-5.454,11.969-5.254c6,.2,8.353,2.5,11.773,5.683s7.966,7.414,15.557,7.711c15.574.611,22.781-15.867,22.781-15.867a3.823,3.823,0,0,0-1.861-5.061,3.77,3.77,0,0,0-5.023,1.875s-5.662,11.823-15.6,11.433c-5.165-.2-7.209-2.428-10.726-5.7s-8.468-7.423-16.652-7.7c-8.27-.28-13.588,3.857-17.285,7.223s-5.742,5.595-9.87,5.58C40.436,291.373,38.18,298.989,46.724,299.016Zm0,30.633c7.1.023,11.49-4.384,14.963-7.546s6.054-5.438,11.969-5.238c6,.2,8.353,2.491,11.773,5.671s7.966,7.41,15.557,7.707c15.574.611,22.781-15.868,22.781-15.868a3.822,3.822,0,0,0-1.861-5.045,3.77,3.77,0,0,0-5.023,1.874s-5.662,11.822-15.6,11.433c-5.165-.2-7.209-2.429-10.726-5.7s-8.468-7.419-16.652-7.7c-8.27-.28-13.588,3.853-17.285,7.219s-5.742,5.579-9.87,5.565C40.436,322.006,38.18,329.621,46.724,329.649Zm0,30.648c7.1.023,11.49-4.384,14.963-7.546s6.054-5.454,11.969-5.254c6,.2,8.353,2.507,11.773,5.687s7.966,7.41,15.557,7.707c15.574.611,22.781-15.864,22.781-15.864a3.822,3.822,0,0,0-1.861-5.049,3.77,3.77,0,0,0-5.023,1.875s-5.662,11.807-15.6,11.417c-5.165-.2-7.209-2.413-10.726-5.683s-8.468-7.419-16.652-7.7c-8.27-.28-13.588,3.838-17.285,7.2s-5.742,5.595-9.87,5.581C40.436,352.654,38.18,360.269,46.724,360.3Z" transform="translate(-41.133 -278.333)"/>
    </g>
  </g>
</svg>
