<svg id="Layer_1" data-name="Layer 1" xmlns="http://www.w3.org/2000/svg" width="420" height="443.34" viewBox="0 0 420 443.34"><path d="M338.34,0a11.67,11.67,0,0,1,11.59,10.31l.07,1.35V35h23.34A46.68,46.68,0,0,1,420,79.34l.05,2.32V385a58.33,58.33,0,0,1-55.8,58.28l-2.53.06H58.33A58.35,58.35,0,0,1,.05,387.53L0,385V81.66A46.68,46.68,0,0,1,44.34,35.05l2.33,0H70V11.66a11.66,11.66,0,0,1,23.25-1.35l.08,1.35V35H326.67V11.66A11.66,11.66,0,0,1,338.34,0Zm58.33,140H23.33V385a35,35,0,0,0,30.92,34.76l2,.18,2,.06H361.67a35,35,0,0,0,34.94-32.94l.06-2.06Zm-280,198.33a11.67,11.67,0,1,1,0,23.33H93.34a11.67,11.67,0,1,1,0-23.33Zm210,0a11.67,11.67,0,1,1,0,23.33H303.34a11.67,11.67,0,1,1,0-23.33Zm-105,0a11.67,11.67,0,1,1,0,23.33H198.34a11.67,11.67,0,1,1,0-23.33Zm-105-70a11.67,11.67,0,1,1,0,23.33H93.34a11.67,11.67,0,1,1,0-23.33Zm210,0a11.67,11.67,0,1,1,0,23.33H303.34a11.67,11.67,0,1,1,0-23.33Zm-105,0a11.67,11.67,0,1,1,0,23.33H198.34a11.67,11.67,0,1,1,0-23.33Zm0-70a11.67,11.67,0,1,1,0,23.33H198.34a11.67,11.67,0,1,1,0-23.33Zm105,0a11.67,11.67,0,1,1,0,23.33H303.34a11.67,11.67,0,1,1,0-23.33ZM70,58.33H46.67A23.34,23.34,0,0,0,23.4,79.92l-.07,1.74v35H396.67v-35a23.33,23.33,0,0,0-19.8-23.06l-1.79-.21-1.74-.06H350V81.66A11.67,11.67,0,0,1,326.75,83l-.08-1.37V58.33H93.33V81.66A11.67,11.67,0,0,1,70.08,83L70,81.66Z"/></svg>