<svg id="Layer_1" data-name="Layer 1" xmlns="http://www.w3.org/2000/svg" width="504" height="504" viewBox="0 0 504 504"><path d="M116.48,504a20.13,20.13,0,0,1-6.16-1.12,14,14,0,0,1-8.4-12.32V404.32H61.6C27.44,404.32,0,378.56,0,347.2V57.68C0,25.76,27.44,0,61.6,0H442.4C476.56,0,504,25.76,504,57.68V347.2c0,31.92-27.44,57.68-61.6,57.68H252.56L126,501.2a18.88,18.88,0,0,1-9.52,2.8ZM61,28.56C43.12,28.56,28.56,42,28.56,58.8V346.64c0,16.8,14.56,30.24,32.48,30.24h54.88c8.4,0,14.56,6.16,14.56,13.44v70.56L238,379.68c2.8-2.24,6.16-2.8,9.52-2.8H443c17.92,0,32.48-13.44,32.48-30.24V58.8c0-16.8-14.56-30.24-32.48-30.24Z"/><path d="M103.71,113.72h46.37c54.23,0,85.24,31.25,85.24,90.26,0,59.23-31,91.93-83.82,91.93H103.71Zm44.54,159.41c38,0,58.25-23.7,58.25-69.15,0-45.23-20.22-67.48-58.25-67.48h-16.6V273.13Z"/><path d="M272.47,113.72h28.27V200.5h.89l70.53-86.78h31.59L300.74,240v55.91H272.47Zm53.62,84.94,16.73-21.89L410,295.91H378.65Z"/></svg>