<svg id="Layer_1" data-name="Layer 1" xmlns="http://www.w3.org/2000/svg" width="504" height="504" viewBox="0 0 504 504"><path d="M116.48,504a20.13,20.13,0,0,1-6.16-1.12,14,14,0,0,1-8.4-12.32V404.32H61.6C27.44,404.32,0,378.56,0,347.2V57.68C0,25.76,27.44,0,61.6,0H442.4C476.56,0,504,25.76,504,57.68V347.2c0,31.92-27.44,57.68-61.6,57.68H252.56L126,501.2a18.88,18.88,0,0,1-9.52,2.8ZM61,28.56C43.12,28.56,28.56,42,28.56,58.8V346.64c0,16.8,14.56,30.24,32.48,30.24h54.88c8.4,0,14.56,6.16,14.56,13.44v70.56L238,379.68c2.8-2.24,6.16-2.8,9.52-2.8H443c17.92,0,32.48-13.44,32.48-30.24V58.8c0-16.8-14.56-30.24-32.48-30.24Z"/><path d="M112.39,113.72H227.21v23.55H140.33V189h73.49v23.54H140.33v59.88H230v23.54H112.39Z"/><path d="M270.82,113.72h29.85L353.85,222l17,38.36h.67c-1.1-18.34-3.74-40.18-3.74-59.94v-86.7H394.4V295.91H364.55L311.37,187.58l-17-38.31h-.66c1.1,19,3.74,39.73,3.74,59.27v87.37H270.82Z"/></svg>